<mxfile host="app.diagrams.net" agent="Mozilla/5.0 (Windows NT 10.0; Win64; x64) AppleWebKit/537.36 (KHTML, like Gecko) Chrome/126.0.0.0 Safari/537.36" version="24.7.7">
  <diagram name="第 1 页" id="REW89fZ5iF1RDSzX4Fyd">
    <mxGraphModel dx="3686" dy="1666" grid="1" gridSize="10" guides="1" tooltips="1" connect="1" arrows="1" fold="1" page="1" pageScale="1" pageWidth="827" pageHeight="1169" math="0" shadow="0">
      <root>
        <mxCell id="0" />
        <mxCell id="1" parent="0" />
        <mxCell id="yG7ckfpjS0qrGn7PJrxm-1" value="" style="rounded=0;whiteSpace=wrap;html=1;fillColor=#dae8fc;strokeColor=#6c8ebf;" vertex="1" parent="1">
          <mxGeometry width="1988" height="1790" as="geometry" />
        </mxCell>
        <mxCell id="yG7ckfpjS0qrGn7PJrxm-2" value="" style="rounded=0;whiteSpace=wrap;html=1;fillColor=#fad9d5;strokeColor=#ae4132;" vertex="1" parent="1">
          <mxGeometry x="1010" y="35" width="420" height="60" as="geometry" />
        </mxCell>
        <mxCell id="yG7ckfpjS0qrGn7PJrxm-3" style="edgeStyle=orthogonalEdgeStyle;rounded=0;orthogonalLoop=1;jettySize=auto;html=1;exitX=1;exitY=0.5;exitDx=0;exitDy=0;entryX=0;entryY=0.5;entryDx=0;entryDy=0;" edge="1" parent="1" source="yG7ckfpjS0qrGn7PJrxm-6" target="yG7ckfpjS0qrGn7PJrxm-9">
          <mxGeometry relative="1" as="geometry" />
        </mxCell>
        <mxCell id="yG7ckfpjS0qrGn7PJrxm-4" style="edgeStyle=orthogonalEdgeStyle;rounded=0;orthogonalLoop=1;jettySize=auto;html=1;exitX=1;exitY=0.5;exitDx=0;exitDy=0;entryX=0;entryY=0.5;entryDx=0;entryDy=0;" edge="1" parent="1" source="yG7ckfpjS0qrGn7PJrxm-6" target="yG7ckfpjS0qrGn7PJrxm-12">
          <mxGeometry relative="1" as="geometry" />
        </mxCell>
        <mxCell id="yG7ckfpjS0qrGn7PJrxm-5" style="edgeStyle=orthogonalEdgeStyle;rounded=0;orthogonalLoop=1;jettySize=auto;html=1;exitX=1;exitY=0.5;exitDx=0;exitDy=0;entryX=0;entryY=0.5;entryDx=0;entryDy=0;" edge="1" parent="1" source="yG7ckfpjS0qrGn7PJrxm-6" target="yG7ckfpjS0qrGn7PJrxm-18">
          <mxGeometry relative="1" as="geometry" />
        </mxCell>
        <mxCell id="yG7ckfpjS0qrGn7PJrxm-6" value="Queue" style="rounded=1;whiteSpace=wrap;html=1;fillColor=#dae8fc;strokeColor=#6c8ebf;" vertex="1" parent="1">
          <mxGeometry x="20" y="270" width="120" height="60" as="geometry" />
        </mxCell>
        <mxCell id="yG7ckfpjS0qrGn7PJrxm-7" style="edgeStyle=orthogonalEdgeStyle;rounded=0;orthogonalLoop=1;jettySize=auto;html=1;exitX=1;exitY=0.5;exitDx=0;exitDy=0;entryX=0;entryY=0.5;entryDx=0;entryDy=0;" edge="1" parent="1" source="yG7ckfpjS0qrGn7PJrxm-9" target="yG7ckfpjS0qrGn7PJrxm-20">
          <mxGeometry relative="1" as="geometry" />
        </mxCell>
        <mxCell id="yG7ckfpjS0qrGn7PJrxm-8" style="edgeStyle=orthogonalEdgeStyle;rounded=0;orthogonalLoop=1;jettySize=auto;html=1;exitX=1;exitY=0.5;exitDx=0;exitDy=0;entryX=0;entryY=0.5;entryDx=0;entryDy=0;" edge="1" parent="1" source="yG7ckfpjS0qrGn7PJrxm-9" target="yG7ckfpjS0qrGn7PJrxm-22">
          <mxGeometry relative="1" as="geometry" />
        </mxCell>
        <mxCell id="yG7ckfpjS0qrGn7PJrxm-9" value="按阻塞分类" style="rounded=1;whiteSpace=wrap;html=1;fillColor=#ffe6cc;strokeColor=#d79b00;" vertex="1" parent="1">
          <mxGeometry x="220" y="80" width="120" height="60" as="geometry" />
        </mxCell>
        <mxCell id="yG7ckfpjS0qrGn7PJrxm-10" style="edgeStyle=orthogonalEdgeStyle;rounded=0;orthogonalLoop=1;jettySize=auto;html=1;exitX=1;exitY=0.5;exitDx=0;exitDy=0;" edge="1" parent="1" source="yG7ckfpjS0qrGn7PJrxm-12" target="yG7ckfpjS0qrGn7PJrxm-24">
          <mxGeometry relative="1" as="geometry" />
        </mxCell>
        <mxCell id="yG7ckfpjS0qrGn7PJrxm-11" style="edgeStyle=orthogonalEdgeStyle;rounded=0;orthogonalLoop=1;jettySize=auto;html=1;exitX=1;exitY=0.5;exitDx=0;exitDy=0;entryX=0;entryY=0.5;entryDx=0;entryDy=0;" edge="1" parent="1" source="yG7ckfpjS0qrGn7PJrxm-12" target="yG7ckfpjS0qrGn7PJrxm-26">
          <mxGeometry relative="1" as="geometry" />
        </mxCell>
        <mxCell id="yG7ckfpjS0qrGn7PJrxm-12" value="按大小分类" style="rounded=1;whiteSpace=wrap;html=1;fillColor=#f8cecc;strokeColor=#b85450;" vertex="1" parent="1">
          <mxGeometry x="220" y="270" width="120" height="60" as="geometry" />
        </mxCell>
        <mxCell id="yG7ckfpjS0qrGn7PJrxm-13" style="edgeStyle=orthogonalEdgeStyle;rounded=0;orthogonalLoop=1;jettySize=auto;html=1;exitX=1;exitY=0.5;exitDx=0;exitDy=0;entryX=0;entryY=0.5;entryDx=0;entryDy=0;" edge="1" parent="1" source="yG7ckfpjS0qrGn7PJrxm-18" target="yG7ckfpjS0qrGn7PJrxm-30">
          <mxGeometry relative="1" as="geometry" />
        </mxCell>
        <mxCell id="yG7ckfpjS0qrGn7PJrxm-14" style="edgeStyle=orthogonalEdgeStyle;rounded=0;orthogonalLoop=1;jettySize=auto;html=1;exitX=1;exitY=0.5;exitDx=0;exitDy=0;entryX=0;entryY=0.5;entryDx=0;entryDy=0;" edge="1" parent="1" source="yG7ckfpjS0qrGn7PJrxm-18" target="yG7ckfpjS0qrGn7PJrxm-33">
          <mxGeometry relative="1" as="geometry" />
        </mxCell>
        <mxCell id="yG7ckfpjS0qrGn7PJrxm-15" style="edgeStyle=orthogonalEdgeStyle;rounded=0;orthogonalLoop=1;jettySize=auto;html=1;exitX=1;exitY=0.5;exitDx=0;exitDy=0;entryX=0;entryY=0.5;entryDx=0;entryDy=0;" edge="1" parent="1" source="yG7ckfpjS0qrGn7PJrxm-18" target="yG7ckfpjS0qrGn7PJrxm-36">
          <mxGeometry relative="1" as="geometry" />
        </mxCell>
        <mxCell id="yG7ckfpjS0qrGn7PJrxm-16" style="edgeStyle=orthogonalEdgeStyle;rounded=0;orthogonalLoop=1;jettySize=auto;html=1;exitX=1;exitY=0.5;exitDx=0;exitDy=0;entryX=0;entryY=0.5;entryDx=0;entryDy=0;" edge="1" parent="1" source="yG7ckfpjS0qrGn7PJrxm-18" target="yG7ckfpjS0qrGn7PJrxm-39">
          <mxGeometry relative="1" as="geometry" />
        </mxCell>
        <mxCell id="yG7ckfpjS0qrGn7PJrxm-17" style="edgeStyle=orthogonalEdgeStyle;rounded=0;orthogonalLoop=1;jettySize=auto;html=1;exitX=1;exitY=0.5;exitDx=0;exitDy=0;entryX=0;entryY=0.5;entryDx=0;entryDy=0;" edge="1" parent="1" source="yG7ckfpjS0qrGn7PJrxm-18" target="yG7ckfpjS0qrGn7PJrxm-40">
          <mxGeometry relative="1" as="geometry" />
        </mxCell>
        <mxCell id="yG7ckfpjS0qrGn7PJrxm-18" value="按功能分类" style="rounded=1;whiteSpace=wrap;html=1;fillColor=#e1d5e7;strokeColor=#9673a6;" vertex="1" parent="1">
          <mxGeometry x="220" y="800" width="120" height="60" as="geometry" />
        </mxCell>
        <mxCell id="yG7ckfpjS0qrGn7PJrxm-19" style="edgeStyle=orthogonalEdgeStyle;rounded=0;orthogonalLoop=1;jettySize=auto;html=1;exitX=1;exitY=0.5;exitDx=0;exitDy=0;entryX=0;entryY=0.5;entryDx=0;entryDy=0;shape=link;" edge="1" parent="1" source="yG7ckfpjS0qrGn7PJrxm-20" target="yG7ckfpjS0qrGn7PJrxm-43">
          <mxGeometry relative="1" as="geometry" />
        </mxCell>
        <mxCell id="yG7ckfpjS0qrGn7PJrxm-20" value="阻塞队列" style="rounded=1;whiteSpace=wrap;html=1;fillColor=#e3c800;fontColor=#000000;strokeColor=#B09500;" vertex="1" parent="1">
          <mxGeometry x="480" y="35" width="120" height="60" as="geometry" />
        </mxCell>
        <mxCell id="yG7ckfpjS0qrGn7PJrxm-21" style="edgeStyle=orthogonalEdgeStyle;rounded=0;orthogonalLoop=1;jettySize=auto;html=1;exitX=1;exitY=0.5;exitDx=0;exitDy=0;entryX=0;entryY=0.5;entryDx=0;entryDy=0;shape=link;" edge="1" parent="1" source="yG7ckfpjS0qrGn7PJrxm-22" target="yG7ckfpjS0qrGn7PJrxm-49">
          <mxGeometry relative="1" as="geometry" />
        </mxCell>
        <mxCell id="yG7ckfpjS0qrGn7PJrxm-22" value="非阻塞队列" style="rounded=1;whiteSpace=wrap;html=1;fillColor=#e3c800;fontColor=#000000;strokeColor=#B09500;" vertex="1" parent="1">
          <mxGeometry x="480" y="125" width="120" height="60" as="geometry" />
        </mxCell>
        <mxCell id="yG7ckfpjS0qrGn7PJrxm-23" style="edgeStyle=orthogonalEdgeStyle;rounded=0;orthogonalLoop=1;jettySize=auto;html=1;exitX=1;exitY=0.5;exitDx=0;exitDy=0;entryX=0;entryY=0.5;entryDx=0;entryDy=0;shape=link;" edge="1" parent="1" source="yG7ckfpjS0qrGn7PJrxm-24" target="yG7ckfpjS0qrGn7PJrxm-58">
          <mxGeometry relative="1" as="geometry" />
        </mxCell>
        <mxCell id="yG7ckfpjS0qrGn7PJrxm-24" value="有界队列" style="rounded=1;whiteSpace=wrap;html=1;fillColor=#f0a30a;fontColor=#000000;strokeColor=#BD7000;" vertex="1" parent="1">
          <mxGeometry x="480" y="225" width="120" height="60" as="geometry" />
        </mxCell>
        <mxCell id="yG7ckfpjS0qrGn7PJrxm-25" style="edgeStyle=orthogonalEdgeStyle;rounded=0;orthogonalLoop=1;jettySize=auto;html=1;exitX=1;exitY=0.5;exitDx=0;exitDy=0;shape=link;" edge="1" parent="1" source="yG7ckfpjS0qrGn7PJrxm-26" target="yG7ckfpjS0qrGn7PJrxm-63">
          <mxGeometry relative="1" as="geometry" />
        </mxCell>
        <mxCell id="yG7ckfpjS0qrGn7PJrxm-26" value="无界队列" style="rounded=1;whiteSpace=wrap;html=1;fillColor=#f0a30a;fontColor=#000000;strokeColor=#BD7000;" vertex="1" parent="1">
          <mxGeometry x="480" y="315" width="120" height="60" as="geometry" />
        </mxCell>
        <mxCell id="yG7ckfpjS0qrGn7PJrxm-27" style="edgeStyle=orthogonalEdgeStyle;rounded=0;orthogonalLoop=1;jettySize=auto;html=1;exitX=1;exitY=0.5;exitDx=0;exitDy=0;entryX=0;entryY=0.5;entryDx=0;entryDy=0;shape=link;" edge="1" parent="1" source="yG7ckfpjS0qrGn7PJrxm-30" target="yG7ckfpjS0qrGn7PJrxm-69">
          <mxGeometry relative="1" as="geometry" />
        </mxCell>
        <mxCell id="yG7ckfpjS0qrGn7PJrxm-28" style="edgeStyle=orthogonalEdgeStyle;rounded=0;orthogonalLoop=1;jettySize=auto;html=1;exitX=1;exitY=0.5;exitDx=0;exitDy=0;entryX=0;entryY=0.5;entryDx=0;entryDy=0;shape=link;" edge="1" parent="1" source="yG7ckfpjS0qrGn7PJrxm-30" target="yG7ckfpjS0qrGn7PJrxm-77">
          <mxGeometry relative="1" as="geometry" />
        </mxCell>
        <mxCell id="yG7ckfpjS0qrGn7PJrxm-29" style="edgeStyle=orthogonalEdgeStyle;rounded=0;orthogonalLoop=1;jettySize=auto;html=1;exitX=0.5;exitY=1;exitDx=0;exitDy=0;entryX=0;entryY=0.5;entryDx=0;entryDy=0;" edge="1" parent="1" source="yG7ckfpjS0qrGn7PJrxm-30" target="yG7ckfpjS0qrGn7PJrxm-111">
          <mxGeometry relative="1" as="geometry" />
        </mxCell>
        <mxCell id="yG7ckfpjS0qrGn7PJrxm-30" value="普通队列" style="rounded=1;whiteSpace=wrap;html=1;fillColor=#76608a;fontColor=#ffffff;strokeColor=#432D57;" vertex="1" parent="1">
          <mxGeometry x="480" y="475" width="120" height="60" as="geometry" />
        </mxCell>
        <mxCell id="yG7ckfpjS0qrGn7PJrxm-31" style="edgeStyle=orthogonalEdgeStyle;rounded=0;orthogonalLoop=1;jettySize=auto;html=1;exitX=1;exitY=0.5;exitDx=0;exitDy=0;entryX=0;entryY=0.5;entryDx=0;entryDy=0;shape=link;" edge="1" parent="1" source="yG7ckfpjS0qrGn7PJrxm-33" target="yG7ckfpjS0qrGn7PJrxm-95">
          <mxGeometry relative="1" as="geometry" />
        </mxCell>
        <mxCell id="yG7ckfpjS0qrGn7PJrxm-32" style="edgeStyle=orthogonalEdgeStyle;rounded=0;orthogonalLoop=1;jettySize=auto;html=1;exitX=0.5;exitY=1;exitDx=0;exitDy=0;entryX=0;entryY=0.5;entryDx=0;entryDy=0;" edge="1" parent="1" source="yG7ckfpjS0qrGn7PJrxm-33" target="yG7ckfpjS0qrGn7PJrxm-113">
          <mxGeometry relative="1" as="geometry" />
        </mxCell>
        <mxCell id="yG7ckfpjS0qrGn7PJrxm-33" value="双端队列" style="rounded=1;whiteSpace=wrap;html=1;fillColor=#76608a;fontColor=#ffffff;strokeColor=#432D57;" vertex="1" parent="1">
          <mxGeometry x="480" y="800" width="120" height="60" as="geometry" />
        </mxCell>
        <mxCell id="yG7ckfpjS0qrGn7PJrxm-34" style="edgeStyle=orthogonalEdgeStyle;rounded=0;orthogonalLoop=1;jettySize=auto;html=1;exitX=1;exitY=0.5;exitDx=0;exitDy=0;entryX=0;entryY=0.5;entryDx=0;entryDy=0;shape=link;" edge="1" parent="1" source="yG7ckfpjS0qrGn7PJrxm-36" target="yG7ckfpjS0qrGn7PJrxm-116">
          <mxGeometry relative="1" as="geometry" />
        </mxCell>
        <mxCell id="yG7ckfpjS0qrGn7PJrxm-35" style="edgeStyle=orthogonalEdgeStyle;rounded=0;orthogonalLoop=1;jettySize=auto;html=1;exitX=0.5;exitY=1;exitDx=0;exitDy=0;entryX=0;entryY=0.5;entryDx=0;entryDy=0;" edge="1" parent="1" source="yG7ckfpjS0qrGn7PJrxm-36" target="yG7ckfpjS0qrGn7PJrxm-128">
          <mxGeometry relative="1" as="geometry" />
        </mxCell>
        <mxCell id="yG7ckfpjS0qrGn7PJrxm-36" value="优先队列" style="rounded=1;whiteSpace=wrap;html=1;fillColor=#76608a;fontColor=#ffffff;strokeColor=#432D57;" vertex="1" parent="1">
          <mxGeometry x="480" y="1130" width="120" height="60" as="geometry" />
        </mxCell>
        <mxCell id="yG7ckfpjS0qrGn7PJrxm-37" style="edgeStyle=orthogonalEdgeStyle;rounded=0;orthogonalLoop=1;jettySize=auto;html=1;exitX=1;exitY=0.5;exitDx=0;exitDy=0;entryX=0;entryY=0.5;entryDx=0;entryDy=0;shape=link;" edge="1" parent="1" source="yG7ckfpjS0qrGn7PJrxm-39" target="yG7ckfpjS0qrGn7PJrxm-130">
          <mxGeometry relative="1" as="geometry" />
        </mxCell>
        <mxCell id="yG7ckfpjS0qrGn7PJrxm-38" style="edgeStyle=orthogonalEdgeStyle;rounded=0;orthogonalLoop=1;jettySize=auto;html=1;exitX=0.5;exitY=1;exitDx=0;exitDy=0;entryX=0;entryY=0.5;entryDx=0;entryDy=0;" edge="1" parent="1" source="yG7ckfpjS0qrGn7PJrxm-39" target="yG7ckfpjS0qrGn7PJrxm-142">
          <mxGeometry relative="1" as="geometry" />
        </mxCell>
        <mxCell id="yG7ckfpjS0qrGn7PJrxm-39" value="延迟队列" style="rounded=1;whiteSpace=wrap;html=1;fillColor=#76608a;fontColor=#ffffff;strokeColor=#432D57;" vertex="1" parent="1">
          <mxGeometry x="480" y="1430" width="120" height="60" as="geometry" />
        </mxCell>
        <mxCell id="yG7ckfpjS0qrGn7PJrxm-40" value="其他队列" style="rounded=1;whiteSpace=wrap;html=1;fillColor=#76608a;fontColor=#ffffff;strokeColor=#432D57;" vertex="1" parent="1">
          <mxGeometry x="480" y="1690" width="120" height="60" as="geometry" />
        </mxCell>
        <mxCell id="yG7ckfpjS0qrGn7PJrxm-41" style="edgeStyle=orthogonalEdgeStyle;rounded=0;orthogonalLoop=1;jettySize=auto;html=1;exitX=1;exitY=0.5;exitDx=0;exitDy=0;entryX=0;entryY=0.5;entryDx=0;entryDy=0;" edge="1" parent="1" source="yG7ckfpjS0qrGn7PJrxm-43" target="yG7ckfpjS0qrGn7PJrxm-44">
          <mxGeometry relative="1" as="geometry" />
        </mxCell>
        <mxCell id="yG7ckfpjS0qrGn7PJrxm-42" value="入队（阻塞等待）" style="edgeLabel;html=1;align=center;verticalAlign=middle;resizable=0;points=[];" vertex="1" connectable="0" parent="yG7ckfpjS0qrGn7PJrxm-41">
          <mxGeometry x="-0.0383" y="-2" relative="1" as="geometry">
            <mxPoint as="offset" />
          </mxGeometry>
        </mxCell>
        <mxCell id="yG7ckfpjS0qrGn7PJrxm-43" value="1" style="rounded=0;whiteSpace=wrap;html=1;fillColor=#b1ddf0;strokeColor=#10739e;" vertex="1" parent="1">
          <mxGeometry x="707" y="35" width="120" height="60" as="geometry" />
        </mxCell>
        <mxCell id="yG7ckfpjS0qrGn7PJrxm-44" value="2" style="rounded=0;whiteSpace=wrap;html=1;fillColor=#fad7ac;strokeColor=#b46504;" vertex="1" parent="1">
          <mxGeometry x="1010" y="35" width="120" height="60" as="geometry" />
        </mxCell>
        <mxCell id="yG7ckfpjS0qrGn7PJrxm-45" value="3" style="rounded=0;whiteSpace=wrap;html=1;fillColor=#fad7ac;strokeColor=#b46504;" vertex="1" parent="1">
          <mxGeometry x="1160" y="35" width="120" height="60" as="geometry" />
        </mxCell>
        <mxCell id="yG7ckfpjS0qrGn7PJrxm-46" value="4" style="rounded=0;whiteSpace=wrap;html=1;fillColor=#fad7ac;strokeColor=#b46504;" vertex="1" parent="1">
          <mxGeometry x="1310" y="35" width="120" height="60" as="geometry" />
        </mxCell>
        <mxCell id="yG7ckfpjS0qrGn7PJrxm-47" value="队列（已满）" style="text;html=1;align=center;verticalAlign=middle;whiteSpace=wrap;rounded=0;" vertex="1" parent="1">
          <mxGeometry x="1165" y="15" width="110" height="20" as="geometry" />
        </mxCell>
        <mxCell id="yG7ckfpjS0qrGn7PJrxm-48" style="edgeStyle=orthogonalEdgeStyle;rounded=0;orthogonalLoop=1;jettySize=auto;html=1;exitX=1;exitY=0.5;exitDx=0;exitDy=0;entryX=0;entryY=0.5;entryDx=0;entryDy=0;" edge="1" parent="1" source="yG7ckfpjS0qrGn7PJrxm-49" target="yG7ckfpjS0qrGn7PJrxm-53">
          <mxGeometry relative="1" as="geometry" />
        </mxCell>
        <mxCell id="yG7ckfpjS0qrGn7PJrxm-49" value="1" style="rounded=0;whiteSpace=wrap;html=1;fillColor=#b1ddf0;strokeColor=#10739e;" vertex="1" parent="1">
          <mxGeometry x="707" y="125" width="120" height="60" as="geometry" />
        </mxCell>
        <mxCell id="yG7ckfpjS0qrGn7PJrxm-50" value="" style="rounded=0;whiteSpace=wrap;html=1;fillColor=#fad9d5;strokeColor=#ae4132;" vertex="1" parent="1">
          <mxGeometry x="1010" y="125" width="420" height="60" as="geometry" />
        </mxCell>
        <mxCell id="yG7ckfpjS0qrGn7PJrxm-51" style="edgeStyle=orthogonalEdgeStyle;rounded=0;orthogonalLoop=1;jettySize=auto;html=1;exitX=0;exitY=0.5;exitDx=0;exitDy=0;" edge="1" parent="1" source="yG7ckfpjS0qrGn7PJrxm-53" target="yG7ckfpjS0qrGn7PJrxm-49">
          <mxGeometry relative="1" as="geometry" />
        </mxCell>
        <mxCell id="yG7ckfpjS0qrGn7PJrxm-52" value="入队（返回失败）" style="edgeLabel;html=1;align=center;verticalAlign=middle;resizable=0;points=[];" vertex="1" connectable="0" parent="yG7ckfpjS0qrGn7PJrxm-51">
          <mxGeometry x="-0.0383" y="4" relative="1" as="geometry">
            <mxPoint as="offset" />
          </mxGeometry>
        </mxCell>
        <mxCell id="yG7ckfpjS0qrGn7PJrxm-53" value="2" style="rounded=0;whiteSpace=wrap;html=1;fillColor=#fad7ac;strokeColor=#b46504;" vertex="1" parent="1">
          <mxGeometry x="1010" y="125" width="120" height="60" as="geometry" />
        </mxCell>
        <mxCell id="yG7ckfpjS0qrGn7PJrxm-54" value="3" style="rounded=0;whiteSpace=wrap;html=1;fillColor=#fad7ac;strokeColor=#b46504;" vertex="1" parent="1">
          <mxGeometry x="1160" y="125" width="120" height="60" as="geometry" />
        </mxCell>
        <mxCell id="yG7ckfpjS0qrGn7PJrxm-55" value="4" style="rounded=0;whiteSpace=wrap;html=1;fillColor=#fad7ac;strokeColor=#b46504;" vertex="1" parent="1">
          <mxGeometry x="1310" y="125" width="120" height="60" as="geometry" />
        </mxCell>
        <mxCell id="yG7ckfpjS0qrGn7PJrxm-56" value="队列（已满）" style="text;html=1;align=center;verticalAlign=middle;whiteSpace=wrap;rounded=0;" vertex="1" parent="1">
          <mxGeometry x="1165" y="105" width="110" height="20" as="geometry" />
        </mxCell>
        <mxCell id="yG7ckfpjS0qrGn7PJrxm-57" value="" style="rounded=0;whiteSpace=wrap;html=1;fillColor=#fad9d5;strokeColor=#ae4132;" vertex="1" parent="1">
          <mxGeometry x="707" y="225" width="420" height="60" as="geometry" />
        </mxCell>
        <mxCell id="yG7ckfpjS0qrGn7PJrxm-58" value="1" style="rounded=0;whiteSpace=wrap;html=1;fillColor=#fad7ac;strokeColor=#b46504;" vertex="1" parent="1">
          <mxGeometry x="707" y="225" width="120" height="60" as="geometry" />
        </mxCell>
        <mxCell id="yG7ckfpjS0qrGn7PJrxm-59" value="2" style="rounded=0;whiteSpace=wrap;html=1;fillColor=#fad7ac;strokeColor=#b46504;" vertex="1" parent="1">
          <mxGeometry x="857" y="225" width="120" height="60" as="geometry" />
        </mxCell>
        <mxCell id="yG7ckfpjS0qrGn7PJrxm-60" value="3" style="rounded=0;whiteSpace=wrap;html=1;fillColor=#fad7ac;strokeColor=#b46504;" vertex="1" parent="1">
          <mxGeometry x="1007" y="225" width="120" height="60" as="geometry" />
        </mxCell>
        <mxCell id="yG7ckfpjS0qrGn7PJrxm-61" value="有界队列（长度5）" style="text;html=1;align=center;verticalAlign=middle;whiteSpace=wrap;rounded=0;" vertex="1" parent="1">
          <mxGeometry x="862" y="205" width="110" height="20" as="geometry" />
        </mxCell>
        <mxCell id="yG7ckfpjS0qrGn7PJrxm-62" value="" style="rounded=0;whiteSpace=wrap;html=1;fillColor=#fad9d5;strokeColor=#ae4132;" vertex="1" parent="1">
          <mxGeometry x="707" y="315" width="653" height="60" as="geometry" />
        </mxCell>
        <mxCell id="yG7ckfpjS0qrGn7PJrxm-63" value="1" style="rounded=0;whiteSpace=wrap;html=1;fillColor=#fad7ac;strokeColor=#b46504;" vertex="1" parent="1">
          <mxGeometry x="707" y="315" width="120" height="60" as="geometry" />
        </mxCell>
        <mxCell id="yG7ckfpjS0qrGn7PJrxm-64" value="2" style="rounded=0;whiteSpace=wrap;html=1;fillColor=#fad7ac;strokeColor=#b46504;" vertex="1" parent="1">
          <mxGeometry x="857" y="315" width="120" height="60" as="geometry" />
        </mxCell>
        <mxCell id="yG7ckfpjS0qrGn7PJrxm-65" value="3" style="rounded=0;whiteSpace=wrap;html=1;fillColor=#fad7ac;strokeColor=#b46504;" vertex="1" parent="1">
          <mxGeometry x="1007" y="315" width="120" height="60" as="geometry" />
        </mxCell>
        <mxCell id="yG7ckfpjS0qrGn7PJrxm-66" value="无界队列（长度未定）" style="text;html=1;align=center;verticalAlign=middle;whiteSpace=wrap;rounded=0;" vertex="1" parent="1">
          <mxGeometry x="853" y="295" width="128" height="20" as="geometry" />
        </mxCell>
        <mxCell id="yG7ckfpjS0qrGn7PJrxm-67" value="...." style="rounded=0;whiteSpace=wrap;html=1;fillColor=#fad7ac;strokeColor=#b46504;" vertex="1" parent="1">
          <mxGeometry x="1160" y="315" width="120" height="60" as="geometry" />
        </mxCell>
        <mxCell id="yG7ckfpjS0qrGn7PJrxm-68" value="" style="rounded=0;whiteSpace=wrap;html=1;fillColor=#fad9d5;strokeColor=#ae4132;" vertex="1" parent="1">
          <mxGeometry x="707" y="430" width="723" height="60" as="geometry" />
        </mxCell>
        <mxCell id="yG7ckfpjS0qrGn7PJrxm-69" value="1" style="rounded=0;whiteSpace=wrap;html=1;fillColor=#fad7ac;strokeColor=#b46504;" vertex="1" parent="1">
          <mxGeometry x="707" y="430" width="120" height="60" as="geometry" />
        </mxCell>
        <mxCell id="yG7ckfpjS0qrGn7PJrxm-70" value="2" style="rounded=0;whiteSpace=wrap;html=1;fillColor=#fad7ac;strokeColor=#b46504;" vertex="1" parent="1">
          <mxGeometry x="857" y="430" width="120" height="60" as="geometry" />
        </mxCell>
        <mxCell id="yG7ckfpjS0qrGn7PJrxm-71" value="3" style="rounded=0;whiteSpace=wrap;html=1;fillColor=#fad7ac;strokeColor=#b46504;" vertex="1" parent="1">
          <mxGeometry x="1007" y="430" width="120" height="60" as="geometry" />
        </mxCell>
        <mxCell id="yG7ckfpjS0qrGn7PJrxm-72" value="...." style="rounded=0;whiteSpace=wrap;html=1;fillColor=#fad7ac;strokeColor=#b46504;" vertex="1" parent="1">
          <mxGeometry x="1160" y="430" width="120" height="60" as="geometry" />
        </mxCell>
        <mxCell id="yG7ckfpjS0qrGn7PJrxm-73" value="队头" style="text;html=1;align=center;verticalAlign=middle;whiteSpace=wrap;rounded=0;" vertex="1" parent="1">
          <mxGeometry x="737" y="400" width="60" height="30" as="geometry" />
        </mxCell>
        <mxCell id="yG7ckfpjS0qrGn7PJrxm-74" value="队尾" style="text;html=1;align=center;verticalAlign=middle;whiteSpace=wrap;rounded=0;" vertex="1" parent="1">
          <mxGeometry x="1350" y="400" width="60" height="30" as="geometry" />
        </mxCell>
        <mxCell id="yG7ckfpjS0qrGn7PJrxm-75" value="n" style="rounded=0;whiteSpace=wrap;html=1;fillColor=#fad7ac;strokeColor=#b46504;" vertex="1" parent="1">
          <mxGeometry x="1320" y="430" width="120" height="60" as="geometry" />
        </mxCell>
        <mxCell id="yG7ckfpjS0qrGn7PJrxm-76" value="" style="rounded=0;whiteSpace=wrap;html=1;fillColor=#fad9d5;strokeColor=#ae4132;" vertex="1" parent="1">
          <mxGeometry x="707" y="520" width="1043" height="70" as="geometry" />
        </mxCell>
        <mxCell id="yG7ckfpjS0qrGn7PJrxm-77" value="1" style="rounded=0;whiteSpace=wrap;html=1;fillColor=#b0e3e6;strokeColor=#0e8088;" vertex="1" parent="1">
          <mxGeometry x="707" y="520" width="73" height="70" as="geometry" />
        </mxCell>
        <mxCell id="yG7ckfpjS0qrGn7PJrxm-78" value="队头" style="text;html=1;align=center;verticalAlign=middle;whiteSpace=wrap;rounded=0;" vertex="1" parent="1">
          <mxGeometry x="737" y="490" width="60" height="30" as="geometry" />
        </mxCell>
        <mxCell id="yG7ckfpjS0qrGn7PJrxm-79" value="队尾" style="text;html=1;align=center;verticalAlign=middle;whiteSpace=wrap;rounded=0;" vertex="1" parent="1">
          <mxGeometry x="1576.5" y="490" width="60" height="30" as="geometry" />
        </mxCell>
        <mxCell id="yG7ckfpjS0qrGn7PJrxm-80" style="edgeStyle=orthogonalEdgeStyle;rounded=0;orthogonalLoop=1;jettySize=auto;html=1;exitX=1;exitY=0.5;exitDx=0;exitDy=0;entryX=0;entryY=0.5;entryDx=0;entryDy=0;" edge="1" parent="1" source="yG7ckfpjS0qrGn7PJrxm-81" target="yG7ckfpjS0qrGn7PJrxm-82">
          <mxGeometry relative="1" as="geometry" />
        </mxCell>
        <mxCell id="yG7ckfpjS0qrGn7PJrxm-81" value="next" style="rounded=0;whiteSpace=wrap;html=1;fillColor=#fad7ac;strokeColor=#b46504;" vertex="1" parent="1">
          <mxGeometry x="780" y="520" width="73" height="70" as="geometry" />
        </mxCell>
        <mxCell id="yG7ckfpjS0qrGn7PJrxm-82" value="2" style="rounded=0;whiteSpace=wrap;html=1;fillColor=#b0e3e6;strokeColor=#0e8088;" vertex="1" parent="1">
          <mxGeometry x="920" y="520" width="73" height="70" as="geometry" />
        </mxCell>
        <mxCell id="yG7ckfpjS0qrGn7PJrxm-83" value="" style="edgeStyle=orthogonalEdgeStyle;rounded=0;orthogonalLoop=1;jettySize=auto;html=1;" edge="1" parent="1" source="yG7ckfpjS0qrGn7PJrxm-84" target="yG7ckfpjS0qrGn7PJrxm-85">
          <mxGeometry relative="1" as="geometry" />
        </mxCell>
        <mxCell id="yG7ckfpjS0qrGn7PJrxm-84" value="next" style="rounded=0;whiteSpace=wrap;html=1;fillColor=#fad7ac;strokeColor=#b46504;" vertex="1" parent="1">
          <mxGeometry x="993" y="520" width="73" height="70" as="geometry" />
        </mxCell>
        <mxCell id="yG7ckfpjS0qrGn7PJrxm-85" value="3" style="rounded=0;whiteSpace=wrap;html=1;fillColor=#b0e3e6;strokeColor=#0e8088;" vertex="1" parent="1">
          <mxGeometry x="1140" y="520" width="73" height="70" as="geometry" />
        </mxCell>
        <mxCell id="yG7ckfpjS0qrGn7PJrxm-86" value="" style="edgeStyle=orthogonalEdgeStyle;rounded=0;orthogonalLoop=1;jettySize=auto;html=1;" edge="1" parent="1" source="yG7ckfpjS0qrGn7PJrxm-87" target="yG7ckfpjS0qrGn7PJrxm-88">
          <mxGeometry relative="1" as="geometry" />
        </mxCell>
        <mxCell id="yG7ckfpjS0qrGn7PJrxm-87" value="next" style="rounded=0;whiteSpace=wrap;html=1;fillColor=#fad7ac;strokeColor=#b46504;" vertex="1" parent="1">
          <mxGeometry x="1213" y="520" width="73" height="70" as="geometry" />
        </mxCell>
        <mxCell id="yG7ckfpjS0qrGn7PJrxm-88" value="..." style="rounded=0;whiteSpace=wrap;html=1;fillColor=#b0e3e6;strokeColor=#0e8088;" vertex="1" parent="1">
          <mxGeometry x="1357" y="520" width="73" height="70" as="geometry" />
        </mxCell>
        <mxCell id="yG7ckfpjS0qrGn7PJrxm-89" value="" style="edgeStyle=orthogonalEdgeStyle;rounded=0;orthogonalLoop=1;jettySize=auto;html=1;" edge="1" parent="1" source="yG7ckfpjS0qrGn7PJrxm-90" target="yG7ckfpjS0qrGn7PJrxm-91">
          <mxGeometry relative="1" as="geometry" />
        </mxCell>
        <mxCell id="yG7ckfpjS0qrGn7PJrxm-90" value="next" style="rounded=0;whiteSpace=wrap;html=1;fillColor=#fad7ac;strokeColor=#b46504;" vertex="1" parent="1">
          <mxGeometry x="1430" y="520" width="73" height="70" as="geometry" />
        </mxCell>
        <mxCell id="yG7ckfpjS0qrGn7PJrxm-91" value="n" style="rounded=0;whiteSpace=wrap;html=1;fillColor=#b0e3e6;strokeColor=#0e8088;" vertex="1" parent="1">
          <mxGeometry x="1570" y="520" width="73" height="70" as="geometry" />
        </mxCell>
        <mxCell id="yG7ckfpjS0qrGn7PJrxm-92" value="null" style="rounded=0;whiteSpace=wrap;html=1;fillColor=#fad7ac;strokeColor=#b46504;" vertex="1" parent="1">
          <mxGeometry x="1643" y="520" width="73" height="70" as="geometry" />
        </mxCell>
        <mxCell id="yG7ckfpjS0qrGn7PJrxm-93" style="edgeStyle=orthogonalEdgeStyle;rounded=0;orthogonalLoop=1;jettySize=auto;html=1;exitX=1;exitY=0.25;exitDx=0;exitDy=0;entryX=0;entryY=0.25;entryDx=0;entryDy=0;" edge="1" parent="1" source="yG7ckfpjS0qrGn7PJrxm-95" target="yG7ckfpjS0qrGn7PJrxm-102">
          <mxGeometry relative="1" as="geometry" />
        </mxCell>
        <mxCell id="yG7ckfpjS0qrGn7PJrxm-94" value="入栈" style="edgeLabel;html=1;align=center;verticalAlign=middle;resizable=0;points=[];" vertex="1" connectable="0" parent="yG7ckfpjS0qrGn7PJrxm-93">
          <mxGeometry x="-0.1624" y="1" relative="1" as="geometry">
            <mxPoint x="1" as="offset" />
          </mxGeometry>
        </mxCell>
        <mxCell id="yG7ckfpjS0qrGn7PJrxm-95" value="&lt;div&gt;m&lt;/div&gt;" style="rounded=0;whiteSpace=wrap;html=1;fillColor=#b1ddf0;strokeColor=#10739e;" vertex="1" parent="1">
          <mxGeometry x="707" y="800" width="120" height="60" as="geometry" />
        </mxCell>
        <mxCell id="yG7ckfpjS0qrGn7PJrxm-96" style="edgeStyle=orthogonalEdgeStyle;rounded=0;orthogonalLoop=1;jettySize=auto;html=1;exitX=0;exitY=0.25;exitDx=0;exitDy=0;entryX=1;entryY=0.25;entryDx=0;entryDy=0;" edge="1" parent="1" source="yG7ckfpjS0qrGn7PJrxm-98" target="yG7ckfpjS0qrGn7PJrxm-108">
          <mxGeometry relative="1" as="geometry" />
        </mxCell>
        <mxCell id="yG7ckfpjS0qrGn7PJrxm-97" value="入栈" style="edgeLabel;html=1;align=center;verticalAlign=middle;resizable=0;points=[];" vertex="1" connectable="0" parent="yG7ckfpjS0qrGn7PJrxm-96">
          <mxGeometry x="-0.0937" y="1" relative="1" as="geometry">
            <mxPoint as="offset" />
          </mxGeometry>
        </mxCell>
        <mxCell id="yG7ckfpjS0qrGn7PJrxm-98" value="m" style="rounded=0;whiteSpace=wrap;html=1;fillColor=#b1ddf0;strokeColor=#10739e;" vertex="1" parent="1">
          <mxGeometry x="1677.5" y="800" width="120" height="60" as="geometry" />
        </mxCell>
        <mxCell id="yG7ckfpjS0qrGn7PJrxm-99" value="" style="rounded=0;whiteSpace=wrap;html=1;fillColor=#fad9d5;strokeColor=#ae4132;" vertex="1" parent="1">
          <mxGeometry x="885.5" y="800" width="728" height="60" as="geometry" />
        </mxCell>
        <mxCell id="yG7ckfpjS0qrGn7PJrxm-100" style="edgeStyle=orthogonalEdgeStyle;rounded=0;orthogonalLoop=1;jettySize=auto;html=1;exitX=0;exitY=0.75;exitDx=0;exitDy=0;entryX=1;entryY=0.75;entryDx=0;entryDy=0;" edge="1" parent="1" source="yG7ckfpjS0qrGn7PJrxm-102" target="yG7ckfpjS0qrGn7PJrxm-95">
          <mxGeometry relative="1" as="geometry" />
        </mxCell>
        <mxCell id="yG7ckfpjS0qrGn7PJrxm-101" value="出栈" style="edgeLabel;html=1;align=center;verticalAlign=middle;resizable=0;points=[];" vertex="1" connectable="0" parent="yG7ckfpjS0qrGn7PJrxm-100">
          <mxGeometry x="0.1282" y="-3" relative="1" as="geometry">
            <mxPoint as="offset" />
          </mxGeometry>
        </mxCell>
        <mxCell id="yG7ckfpjS0qrGn7PJrxm-102" value="1" style="rounded=0;whiteSpace=wrap;html=1;fillColor=#fad7ac;strokeColor=#b46504;" vertex="1" parent="1">
          <mxGeometry x="885.5" y="800" width="120" height="60" as="geometry" />
        </mxCell>
        <mxCell id="yG7ckfpjS0qrGn7PJrxm-103" value="2" style="rounded=0;whiteSpace=wrap;html=1;fillColor=#fad7ac;strokeColor=#b46504;" vertex="1" parent="1">
          <mxGeometry x="1035.5" y="800" width="120" height="60" as="geometry" />
        </mxCell>
        <mxCell id="yG7ckfpjS0qrGn7PJrxm-104" value="3" style="rounded=0;whiteSpace=wrap;html=1;fillColor=#fad7ac;strokeColor=#b46504;" vertex="1" parent="1">
          <mxGeometry x="1185.5" y="800" width="120" height="60" as="geometry" />
        </mxCell>
        <mxCell id="yG7ckfpjS0qrGn7PJrxm-105" value="...." style="rounded=0;whiteSpace=wrap;html=1;fillColor=#fad7ac;strokeColor=#b46504;" vertex="1" parent="1">
          <mxGeometry x="1338.5" y="800" width="120" height="60" as="geometry" />
        </mxCell>
        <mxCell id="yG7ckfpjS0qrGn7PJrxm-106" style="edgeStyle=orthogonalEdgeStyle;rounded=0;orthogonalLoop=1;jettySize=auto;html=1;exitX=1;exitY=0.75;exitDx=0;exitDy=0;entryX=0;entryY=0.75;entryDx=0;entryDy=0;" edge="1" parent="1" source="yG7ckfpjS0qrGn7PJrxm-108" target="yG7ckfpjS0qrGn7PJrxm-98">
          <mxGeometry relative="1" as="geometry" />
        </mxCell>
        <mxCell id="yG7ckfpjS0qrGn7PJrxm-107" value="出栈" style="edgeLabel;html=1;align=center;verticalAlign=middle;resizable=0;points=[];" vertex="1" connectable="0" parent="yG7ckfpjS0qrGn7PJrxm-106">
          <mxGeometry x="-0.125" y="-1" relative="1" as="geometry">
            <mxPoint as="offset" />
          </mxGeometry>
        </mxCell>
        <mxCell id="yG7ckfpjS0qrGn7PJrxm-108" value="n" style="rounded=0;whiteSpace=wrap;html=1;fillColor=#fad7ac;strokeColor=#b46504;" vertex="1" parent="1">
          <mxGeometry x="1493.5" y="800" width="120" height="60" as="geometry" />
        </mxCell>
        <mxCell id="yG7ckfpjS0qrGn7PJrxm-109" value="队头" style="text;html=1;align=center;verticalAlign=middle;whiteSpace=wrap;rounded=0;" vertex="1" parent="1">
          <mxGeometry x="915.5" y="770" width="60" height="30" as="geometry" />
        </mxCell>
        <mxCell id="yG7ckfpjS0qrGn7PJrxm-110" value="队尾" style="text;html=1;align=center;verticalAlign=middle;whiteSpace=wrap;rounded=0;" vertex="1" parent="1">
          <mxGeometry x="1523.5" y="770" width="60" height="30" as="geometry" />
        </mxCell>
        <mxCell id="yG7ckfpjS0qrGn7PJrxm-111" value="一般情况下offer()和poll()方法配合使用，put()和take()阻塞方法配合使用，add()和remove()方法会配合使用，程序中常用的是offer()和poll()方法，因为这两个方法比较友好，不会报错" style="rounded=0;whiteSpace=wrap;html=1;fillColor=#e3c800;strokeColor=#B09500;fontColor=#000000;" vertex="1" parent="1">
          <mxGeometry x="707" y="620" width="440" height="120" as="geometry" />
        </mxCell>
        <mxCell id="yG7ckfpjS0qrGn7PJrxm-112" value="" style="edgeStyle=orthogonalEdgeStyle;rounded=0;orthogonalLoop=1;jettySize=auto;html=1;" edge="1" parent="1" source="yG7ckfpjS0qrGn7PJrxm-113" target="yG7ckfpjS0qrGn7PJrxm-114">
          <mxGeometry relative="1" as="geometry" />
        </mxCell>
        <mxCell id="yG7ckfpjS0qrGn7PJrxm-113" value="JUC包里面的BlockingDeque接口表示一个线程安防和提取实例的双端队列。" style="rounded=0;whiteSpace=wrap;html=1;fillColor=#e3c800;strokeColor=#B09500;fontColor=#000000;" vertex="1" parent="1">
          <mxGeometry x="707" y="890" width="440" height="120" as="geometry" />
        </mxCell>
        <mxCell id="yG7ckfpjS0qrGn7PJrxm-114" value="BlockingDeque的方法：一个BlockingDeque-线程在双端队列两端都可以插入和提取元素。一个线程产生元素，并把他们插入到队列的任意一端。如果双端队列已满。插入线程将被阻塞，直到一个移除线程从改队列中移除了一个元素。如果双端队列为空，移除线程将被阻塞，知道一个插入线程向该线程插入了一个新元素。" style="rounded=0;whiteSpace=wrap;html=1;fillColor=#e3c800;fontColor=#000000;strokeColor=#B09500;" vertex="1" parent="1">
          <mxGeometry x="1241" y="890" width="440" height="120" as="geometry" />
        </mxCell>
        <mxCell id="yG7ckfpjS0qrGn7PJrxm-115" value="" style="rounded=0;whiteSpace=wrap;html=1;fillColor=#fad9d5;strokeColor=#ae4132;" vertex="1" parent="1">
          <mxGeometry x="707" y="1130" width="1139.5" height="60" as="geometry" />
        </mxCell>
        <mxCell id="yG7ckfpjS0qrGn7PJrxm-116" value="1" style="rounded=0;whiteSpace=wrap;html=1;fillColor=#fad7ac;strokeColor=#b46504;" vertex="1" parent="1">
          <mxGeometry x="707" y="1130" width="69.5" height="60" as="geometry" />
        </mxCell>
        <mxCell id="yG7ckfpjS0qrGn7PJrxm-117" value="优先级：10" style="rounded=0;whiteSpace=wrap;html=1;fillColor=#e1d5e7;strokeColor=#9673a6;" vertex="1" parent="1">
          <mxGeometry x="776.5" y="1130" width="69.5" height="60" as="geometry" />
        </mxCell>
        <mxCell id="yG7ckfpjS0qrGn7PJrxm-118" value="a" style="rounded=0;whiteSpace=wrap;html=1;fillColor=#d5e8d4;strokeColor=#82b366;" vertex="1" parent="1">
          <mxGeometry x="846" y="1130" width="69.5" height="60" as="geometry" />
        </mxCell>
        <mxCell id="yG7ckfpjS0qrGn7PJrxm-119" value="2" style="rounded=0;whiteSpace=wrap;html=1;fillColor=#fad7ac;strokeColor=#b46504;" vertex="1" parent="1">
          <mxGeometry x="983.5" y="1130" width="69.5" height="60" as="geometry" />
        </mxCell>
        <mxCell id="yG7ckfpjS0qrGn7PJrxm-120" value="优先级：6" style="rounded=0;whiteSpace=wrap;html=1;fillColor=#e1d5e7;strokeColor=#9673a6;" vertex="1" parent="1">
          <mxGeometry x="1053" y="1130" width="69.5" height="60" as="geometry" />
        </mxCell>
        <mxCell id="yG7ckfpjS0qrGn7PJrxm-121" value="b" style="rounded=0;whiteSpace=wrap;html=1;fillColor=#d5e8d4;strokeColor=#82b366;" vertex="1" parent="1">
          <mxGeometry x="1122.5" y="1130" width="69.5" height="60" as="geometry" />
        </mxCell>
        <mxCell id="yG7ckfpjS0qrGn7PJrxm-122" value="..." style="rounded=0;whiteSpace=wrap;html=1;fillColor=#fad7ac;strokeColor=#b46504;" vertex="1" parent="1">
          <mxGeometry x="1266.5" y="1130" width="69.5" height="60" as="geometry" />
        </mxCell>
        <mxCell id="yG7ckfpjS0qrGn7PJrxm-123" value="优先级：10" style="rounded=0;whiteSpace=wrap;html=1;fillColor=#e1d5e7;strokeColor=#9673a6;" vertex="1" parent="1">
          <mxGeometry x="1336" y="1130" width="69.5" height="60" as="geometry" />
        </mxCell>
        <mxCell id="yG7ckfpjS0qrGn7PJrxm-124" value="..." style="rounded=0;whiteSpace=wrap;html=1;fillColor=#d5e8d4;strokeColor=#82b366;" vertex="1" parent="1">
          <mxGeometry x="1405.5" y="1130" width="69.5" height="60" as="geometry" />
        </mxCell>
        <mxCell id="yG7ckfpjS0qrGn7PJrxm-125" value="n" style="rounded=0;whiteSpace=wrap;html=1;fillColor=#fad7ac;strokeColor=#b46504;" vertex="1" parent="1">
          <mxGeometry x="1548" y="1130" width="69.5" height="60" as="geometry" />
        </mxCell>
        <mxCell id="yG7ckfpjS0qrGn7PJrxm-126" value="优先级：5" style="rounded=0;whiteSpace=wrap;html=1;fillColor=#e1d5e7;strokeColor=#9673a6;" vertex="1" parent="1">
          <mxGeometry x="1617.5" y="1130" width="69.5" height="60" as="geometry" />
        </mxCell>
        <mxCell id="yG7ckfpjS0qrGn7PJrxm-127" value="n" style="rounded=0;whiteSpace=wrap;html=1;fillColor=#d5e8d4;strokeColor=#82b366;" vertex="1" parent="1">
          <mxGeometry x="1687" y="1130" width="69.5" height="60" as="geometry" />
        </mxCell>
        <mxCell id="yG7ckfpjS0qrGn7PJrxm-128" value="优先队列（PriortyQueue）是一种特殊的队列，它并不是先进先出的，二十优先级高的元素先出队列，内部基于数组实现，线程不安全的队列。" style="rounded=0;whiteSpace=wrap;html=1;fillColor=#e3c800;fontColor=#000000;strokeColor=#B09500;" vertex="1" parent="1">
          <mxGeometry x="707" y="1220" width="440" height="120" as="geometry" />
        </mxCell>
        <mxCell id="yG7ckfpjS0qrGn7PJrxm-129" value="" style="rounded=0;whiteSpace=wrap;html=1;fillColor=#fad9d5;strokeColor=#ae4132;" vertex="1" parent="1">
          <mxGeometry x="707" y="1430" width="1139.5" height="60" as="geometry" />
        </mxCell>
        <mxCell id="yG7ckfpjS0qrGn7PJrxm-130" value="1" style="rounded=0;whiteSpace=wrap;html=1;fillColor=#fad7ac;strokeColor=#b46504;" vertex="1" parent="1">
          <mxGeometry x="707" y="1430" width="69.5" height="60" as="geometry" />
        </mxCell>
        <mxCell id="yG7ckfpjS0qrGn7PJrxm-131" value="优先级：10" style="rounded=0;whiteSpace=wrap;html=1;fillColor=#e1d5e7;strokeColor=#9673a6;" vertex="1" parent="1">
          <mxGeometry x="776.5" y="1430" width="69.5" height="60" as="geometry" />
        </mxCell>
        <mxCell id="yG7ckfpjS0qrGn7PJrxm-132" value="a" style="rounded=0;whiteSpace=wrap;html=1;fillColor=#d5e8d4;strokeColor=#82b366;" vertex="1" parent="1">
          <mxGeometry x="846" y="1430" width="69.5" height="60" as="geometry" />
        </mxCell>
        <mxCell id="yG7ckfpjS0qrGn7PJrxm-133" value="2" style="rounded=0;whiteSpace=wrap;html=1;fillColor=#fad7ac;strokeColor=#b46504;" vertex="1" parent="1">
          <mxGeometry x="983.5" y="1430" width="69.5" height="60" as="geometry" />
        </mxCell>
        <mxCell id="yG7ckfpjS0qrGn7PJrxm-134" value="优先级：6" style="rounded=0;whiteSpace=wrap;html=1;fillColor=#e1d5e7;strokeColor=#9673a6;" vertex="1" parent="1">
          <mxGeometry x="1053" y="1430" width="69.5" height="60" as="geometry" />
        </mxCell>
        <mxCell id="yG7ckfpjS0qrGn7PJrxm-135" value="b" style="rounded=0;whiteSpace=wrap;html=1;fillColor=#d5e8d4;strokeColor=#82b366;" vertex="1" parent="1">
          <mxGeometry x="1122.5" y="1430" width="69.5" height="60" as="geometry" />
        </mxCell>
        <mxCell id="yG7ckfpjS0qrGn7PJrxm-136" value="..." style="rounded=0;whiteSpace=wrap;html=1;fillColor=#fad7ac;strokeColor=#b46504;" vertex="1" parent="1">
          <mxGeometry x="1266.5" y="1430" width="69.5" height="60" as="geometry" />
        </mxCell>
        <mxCell id="yG7ckfpjS0qrGn7PJrxm-137" value="优先级：10" style="rounded=0;whiteSpace=wrap;html=1;fillColor=#e1d5e7;strokeColor=#9673a6;" vertex="1" parent="1">
          <mxGeometry x="1336" y="1430" width="69.5" height="60" as="geometry" />
        </mxCell>
        <mxCell id="yG7ckfpjS0qrGn7PJrxm-138" value="..." style="rounded=0;whiteSpace=wrap;html=1;fillColor=#d5e8d4;strokeColor=#82b366;" vertex="1" parent="1">
          <mxGeometry x="1405.5" y="1430" width="69.5" height="60" as="geometry" />
        </mxCell>
        <mxCell id="yG7ckfpjS0qrGn7PJrxm-139" value="n" style="rounded=0;whiteSpace=wrap;html=1;fillColor=#fad7ac;strokeColor=#b46504;" vertex="1" parent="1">
          <mxGeometry x="1548" y="1430" width="69.5" height="60" as="geometry" />
        </mxCell>
        <mxCell id="yG7ckfpjS0qrGn7PJrxm-140" value="优先级：5" style="rounded=0;whiteSpace=wrap;html=1;fillColor=#e1d5e7;strokeColor=#9673a6;" vertex="1" parent="1">
          <mxGeometry x="1617.5" y="1430" width="69.5" height="60" as="geometry" />
        </mxCell>
        <mxCell id="yG7ckfpjS0qrGn7PJrxm-141" value="n" style="rounded=0;whiteSpace=wrap;html=1;fillColor=#d5e8d4;strokeColor=#82b366;" vertex="1" parent="1">
          <mxGeometry x="1687" y="1430" width="69.5" height="60" as="geometry" />
        </mxCell>
        <mxCell id="yG7ckfpjS0qrGn7PJrxm-142" value="延迟队列（DelayQueue）是基于优先队列实现的，它可以看作一种以时间为度量单位的优先的队列，当入队的元素到达指定的延迟时间后方可出队。" style="rounded=0;whiteSpace=wrap;html=1;fillColor=#e3c800;fontColor=#000000;strokeColor=#B09500;" vertex="1" parent="1">
          <mxGeometry x="707" y="1520" width="440" height="120" as="geometry" />
        </mxCell>
        <mxCell id="yG7ckfpjS0qrGn7PJrxm-143" style="edgeStyle=orthogonalEdgeStyle;rounded=0;orthogonalLoop=1;jettySize=auto;html=1;exitX=0.5;exitY=1;exitDx=0;exitDy=0;entryX=0.5;entryY=0;entryDx=0;entryDy=0;" edge="1" parent="1" source="yG7ckfpjS0qrGn7PJrxm-146" target="yG7ckfpjS0qrGn7PJrxm-153">
          <mxGeometry relative="1" as="geometry" />
        </mxCell>
        <mxCell id="yG7ckfpjS0qrGn7PJrxm-144" style="edgeStyle=orthogonalEdgeStyle;rounded=0;orthogonalLoop=1;jettySize=auto;html=1;exitX=0.5;exitY=1;exitDx=0;exitDy=0;entryX=0.5;entryY=0;entryDx=0;entryDy=0;" edge="1" parent="1" source="yG7ckfpjS0qrGn7PJrxm-146">
          <mxGeometry relative="1" as="geometry">
            <mxPoint x="1429" y="2255" as="targetPoint" />
          </mxGeometry>
        </mxCell>
        <mxCell id="yG7ckfpjS0qrGn7PJrxm-145" value="" style="edgeStyle=orthogonalEdgeStyle;rounded=0;orthogonalLoop=1;jettySize=auto;html=1;" edge="1" parent="1" source="yG7ckfpjS0qrGn7PJrxm-146" target="yG7ckfpjS0qrGn7PJrxm-159">
          <mxGeometry relative="1" as="geometry" />
        </mxCell>
        <mxCell id="yG7ckfpjS0qrGn7PJrxm-146" value="Collection" style="rounded=1;whiteSpace=wrap;html=1;fillColor=#647687;fontColor=#ffffff;strokeColor=#314354;" vertex="1" parent="1">
          <mxGeometry x="1369" y="2090" width="120" height="60" as="geometry" />
        </mxCell>
        <mxCell id="yG7ckfpjS0qrGn7PJrxm-147" style="edgeStyle=orthogonalEdgeStyle;rounded=0;orthogonalLoop=1;jettySize=auto;html=1;exitX=1;exitY=0.5;exitDx=0;exitDy=0;entryX=0;entryY=0.5;entryDx=0;entryDy=0;" edge="1" parent="1" source="yG7ckfpjS0qrGn7PJrxm-153" target="yG7ckfpjS0qrGn7PJrxm-154">
          <mxGeometry relative="1" as="geometry">
            <Array as="points">
              <mxPoint x="766" y="2285" />
              <mxPoint x="766" y="2250" />
            </Array>
          </mxGeometry>
        </mxCell>
        <mxCell id="yG7ckfpjS0qrGn7PJrxm-148" style="edgeStyle=orthogonalEdgeStyle;rounded=0;orthogonalLoop=1;jettySize=auto;html=1;exitX=1;exitY=0.5;exitDx=0;exitDy=0;entryX=0;entryY=0.5;entryDx=0;entryDy=0;" edge="1" parent="1" source="yG7ckfpjS0qrGn7PJrxm-153" target="yG7ckfpjS0qrGn7PJrxm-155">
          <mxGeometry relative="1" as="geometry">
            <Array as="points">
              <mxPoint x="766" y="2285" />
              <mxPoint x="766" y="2320" />
            </Array>
          </mxGeometry>
        </mxCell>
        <mxCell id="yG7ckfpjS0qrGn7PJrxm-149" value="implments" style="edgeLabel;html=1;align=center;verticalAlign=middle;resizable=0;points=[];" vertex="1" connectable="0" parent="yG7ckfpjS0qrGn7PJrxm-148">
          <mxGeometry x="-0.653" relative="1" as="geometry">
            <mxPoint x="5" as="offset" />
          </mxGeometry>
        </mxCell>
        <mxCell id="yG7ckfpjS0qrGn7PJrxm-150" style="edgeStyle=orthogonalEdgeStyle;rounded=0;orthogonalLoop=1;jettySize=auto;html=1;exitX=0.5;exitY=1;exitDx=0;exitDy=0;" edge="1" parent="1" source="yG7ckfpjS0qrGn7PJrxm-153" target="yG7ckfpjS0qrGn7PJrxm-184">
          <mxGeometry relative="1" as="geometry" />
        </mxCell>
        <mxCell id="yG7ckfpjS0qrGn7PJrxm-151" value="ArrayList / LinkedList" style="edgeLabel;html=1;align=center;verticalAlign=middle;resizable=0;points=[];" vertex="1" connectable="0" parent="yG7ckfpjS0qrGn7PJrxm-150">
          <mxGeometry x="-0.1849" relative="1" as="geometry">
            <mxPoint y="1" as="offset" />
          </mxGeometry>
        </mxCell>
        <mxCell id="yG7ckfpjS0qrGn7PJrxm-152" style="edgeStyle=orthogonalEdgeStyle;rounded=0;orthogonalLoop=1;jettySize=auto;html=1;entryX=1;entryY=0.5;entryDx=0;entryDy=0;" edge="1" parent="1" source="yG7ckfpjS0qrGn7PJrxm-153" target="yG7ckfpjS0qrGn7PJrxm-219">
          <mxGeometry relative="1" as="geometry" />
        </mxCell>
        <mxCell id="yG7ckfpjS0qrGn7PJrxm-153" value="List" style="rounded=1;whiteSpace=wrap;html=1;fillColor=#76608a;fontColor=#ffffff;strokeColor=#432D57;" vertex="1" parent="1">
          <mxGeometry x="586" y="2255" width="120" height="60" as="geometry" />
        </mxCell>
        <mxCell id="yG7ckfpjS0qrGn7PJrxm-154" value="ArrayList&lt;div&gt;查询速度快、增删速度慢&lt;/div&gt;" style="rounded=1;whiteSpace=wrap;html=1;fillColor=#d0cee2;strokeColor=#56517e;" vertex="1" parent="1">
          <mxGeometry x="816" y="2220" width="170" height="60" as="geometry" />
        </mxCell>
        <mxCell id="yG7ckfpjS0qrGn7PJrxm-155" value="LinkedList&lt;div&gt;查询速度慢，增删速度快&lt;/div&gt;" style="rounded=1;whiteSpace=wrap;html=1;fillColor=#d0cee2;strokeColor=#56517e;" vertex="1" parent="1">
          <mxGeometry x="816" y="2290" width="170" height="60" as="geometry" />
        </mxCell>
        <mxCell id="yG7ckfpjS0qrGn7PJrxm-156" value="接口" style="text;html=1;align=center;verticalAlign=middle;whiteSpace=wrap;rounded=0;" vertex="1" parent="1">
          <mxGeometry x="1439" y="2070" width="50" height="20" as="geometry" />
        </mxCell>
        <mxCell id="yG7ckfpjS0qrGn7PJrxm-157" value="接口" style="text;html=1;align=center;verticalAlign=middle;whiteSpace=wrap;rounded=0;" vertex="1" parent="1">
          <mxGeometry x="656" y="2235" width="50" height="20" as="geometry" />
        </mxCell>
        <mxCell id="yG7ckfpjS0qrGn7PJrxm-158" value="实现类" style="text;html=1;align=center;verticalAlign=middle;whiteSpace=wrap;rounded=0;" vertex="1" parent="1">
          <mxGeometry x="766" y="2250" width="50" height="20" as="geometry" />
        </mxCell>
        <mxCell id="yG7ckfpjS0qrGn7PJrxm-159" value="&lt;ol&gt;&lt;li&gt;Collection是单列集合的根接口，主要用于存储一系列符合某种规则的元素，它有两个重要的子接口List和Set。&lt;/li&gt;&lt;li&gt;List接口的特点是元素有序可重复。&lt;/li&gt;&lt;li&gt;Set接口的特点是元素无序，不可重复。&lt;/li&gt;&lt;li&gt;ArrayList和LinkedList是List接口的实现类。&lt;/li&gt;&lt;li&gt;HashSet和TreeSet是Set接口的是实现类。&lt;/li&gt;&lt;/ol&gt;" style="rounded=0;whiteSpace=wrap;html=1;fillColor=#dae8fc;strokeColor=#6c8ebf;align=left;" vertex="1" parent="1">
          <mxGeometry x="1570" y="2045" width="642" height="150" as="geometry" />
        </mxCell>
        <mxCell id="yG7ckfpjS0qrGn7PJrxm-160" value="&lt;div&gt;&lt;ol&gt;&lt;li&gt;Map是双列集合的跟接口，用于存储具有键（Key），值（Value）映射关系的元素，每个元素都包含一个键-值对，在使用该集合时可以通过指定的键找到对应的值。&lt;/li&gt;&lt;li&gt;Map为独立接口。&lt;/li&gt;&lt;li&gt;HashMap和TreeMap是Map接口的是实现类。&lt;/li&gt;&lt;/ol&gt;&lt;/div&gt;" style="rounded=0;whiteSpace=wrap;html=1;fillColor=#dae8fc;strokeColor=#6c8ebf;align=left;" vertex="1" parent="1">
          <mxGeometry x="2002" y="2220" width="477" height="130" as="geometry" />
        </mxCell>
        <mxCell id="yG7ckfpjS0qrGn7PJrxm-161" value="实现类" style="text;html=1;align=center;verticalAlign=middle;whiteSpace=wrap;rounded=0;" vertex="1" parent="1">
          <mxGeometry x="766" y="2300" width="50" height="20" as="geometry" />
        </mxCell>
        <mxCell id="yG7ckfpjS0qrGn7PJrxm-162" style="edgeStyle=orthogonalEdgeStyle;rounded=0;orthogonalLoop=1;jettySize=auto;html=1;exitX=1;exitY=0.5;exitDx=0;exitDy=0;entryX=0;entryY=0.5;entryDx=0;entryDy=0;" edge="1" parent="1" source="yG7ckfpjS0qrGn7PJrxm-166" target="yG7ckfpjS0qrGn7PJrxm-167">
          <mxGeometry relative="1" as="geometry">
            <Array as="points">
              <mxPoint x="1549" y="2285" />
              <mxPoint x="1549" y="2250" />
            </Array>
          </mxGeometry>
        </mxCell>
        <mxCell id="yG7ckfpjS0qrGn7PJrxm-163" style="edgeStyle=orthogonalEdgeStyle;rounded=0;orthogonalLoop=1;jettySize=auto;html=1;exitX=1;exitY=0.5;exitDx=0;exitDy=0;entryX=0;entryY=0.5;entryDx=0;entryDy=0;" edge="1" parent="1" source="yG7ckfpjS0qrGn7PJrxm-166" target="yG7ckfpjS0qrGn7PJrxm-168">
          <mxGeometry relative="1" as="geometry">
            <Array as="points">
              <mxPoint x="1549" y="2285" />
              <mxPoint x="1549" y="2320" />
            </Array>
          </mxGeometry>
        </mxCell>
        <mxCell id="yG7ckfpjS0qrGn7PJrxm-164" value="implments" style="edgeLabel;html=1;align=center;verticalAlign=middle;resizable=0;points=[];" vertex="1" connectable="0" parent="yG7ckfpjS0qrGn7PJrxm-163">
          <mxGeometry x="-0.653" relative="1" as="geometry">
            <mxPoint x="5" as="offset" />
          </mxGeometry>
        </mxCell>
        <mxCell id="yG7ckfpjS0qrGn7PJrxm-165" style="edgeStyle=orthogonalEdgeStyle;rounded=0;orthogonalLoop=1;jettySize=auto;html=1;exitX=0.5;exitY=1;exitDx=0;exitDy=0;" edge="1" parent="1" source="yG7ckfpjS0qrGn7PJrxm-166">
          <mxGeometry relative="1" as="geometry">
            <mxPoint x="1429" y="2510" as="targetPoint" />
          </mxGeometry>
        </mxCell>
        <mxCell id="yG7ckfpjS0qrGn7PJrxm-166" value="Set" style="rounded=1;whiteSpace=wrap;html=1;fillColor=#a0522d;fontColor=#ffffff;strokeColor=#6D1F00;" vertex="1" parent="1">
          <mxGeometry x="1369" y="2255" width="120" height="60" as="geometry" />
        </mxCell>
        <mxCell id="yG7ckfpjS0qrGn7PJrxm-167" value="HashSet" style="rounded=1;whiteSpace=wrap;html=1;fillColor=#fad9d5;strokeColor=#ae4132;" vertex="1" parent="1">
          <mxGeometry x="1599" y="2220" width="120" height="60" as="geometry" />
        </mxCell>
        <mxCell id="yG7ckfpjS0qrGn7PJrxm-168" value="TreeSet" style="rounded=1;whiteSpace=wrap;html=1;fillColor=#fad9d5;strokeColor=#ae4132;" vertex="1" parent="1">
          <mxGeometry x="1599" y="2290" width="120" height="60" as="geometry" />
        </mxCell>
        <mxCell id="yG7ckfpjS0qrGn7PJrxm-169" value="接口" style="text;html=1;align=center;verticalAlign=middle;whiteSpace=wrap;rounded=0;" vertex="1" parent="1">
          <mxGeometry x="1439" y="2235" width="50" height="20" as="geometry" />
        </mxCell>
        <mxCell id="yG7ckfpjS0qrGn7PJrxm-170" value="实现类" style="text;html=1;align=center;verticalAlign=middle;whiteSpace=wrap;rounded=0;" vertex="1" parent="1">
          <mxGeometry x="1549" y="2250" width="50" height="20" as="geometry" />
        </mxCell>
        <mxCell id="yG7ckfpjS0qrGn7PJrxm-171" value="实现类" style="text;html=1;align=center;verticalAlign=middle;whiteSpace=wrap;rounded=0;" vertex="1" parent="1">
          <mxGeometry x="1549" y="2300" width="50" height="20" as="geometry" />
        </mxCell>
        <mxCell id="yG7ckfpjS0qrGn7PJrxm-172" style="edgeStyle=orthogonalEdgeStyle;rounded=0;orthogonalLoop=1;jettySize=auto;html=1;exitX=0.5;exitY=1;exitDx=0;exitDy=0;entryX=0.5;entryY=0;entryDx=0;entryDy=0;" edge="1" parent="1" source="yG7ckfpjS0qrGn7PJrxm-176" target="yG7ckfpjS0qrGn7PJrxm-178">
          <mxGeometry relative="1" as="geometry" />
        </mxCell>
        <mxCell id="yG7ckfpjS0qrGn7PJrxm-173" style="edgeStyle=orthogonalEdgeStyle;rounded=0;orthogonalLoop=1;jettySize=auto;html=1;exitX=0.5;exitY=1;exitDx=0;exitDy=0;entryX=0.5;entryY=0;entryDx=0;entryDy=0;" edge="1" parent="1" source="yG7ckfpjS0qrGn7PJrxm-176" target="yG7ckfpjS0qrGn7PJrxm-180">
          <mxGeometry relative="1" as="geometry" />
        </mxCell>
        <mxCell id="yG7ckfpjS0qrGn7PJrxm-174" value="implments" style="edgeLabel;html=1;align=center;verticalAlign=middle;resizable=0;points=[];" vertex="1" connectable="0" parent="yG7ckfpjS0qrGn7PJrxm-173">
          <mxGeometry x="-0.7483" y="1" relative="1" as="geometry">
            <mxPoint as="offset" />
          </mxGeometry>
        </mxCell>
        <mxCell id="yG7ckfpjS0qrGn7PJrxm-175" style="edgeStyle=orthogonalEdgeStyle;rounded=0;orthogonalLoop=1;jettySize=auto;html=1;exitX=1;exitY=0.5;exitDx=0;exitDy=0;entryX=0;entryY=0.5;entryDx=0;entryDy=0;" edge="1" parent="1" source="yG7ckfpjS0qrGn7PJrxm-176" target="yG7ckfpjS0qrGn7PJrxm-160">
          <mxGeometry relative="1" as="geometry" />
        </mxCell>
        <mxCell id="yG7ckfpjS0qrGn7PJrxm-176" value="Map" style="rounded=1;whiteSpace=wrap;html=1;fillColor=#6d8764;fontColor=#ffffff;strokeColor=#3A5431;" vertex="1" parent="1">
          <mxGeometry x="1852" y="2255" width="120" height="60" as="geometry" />
        </mxCell>
        <mxCell id="yG7ckfpjS0qrGn7PJrxm-177" style="edgeStyle=orthogonalEdgeStyle;rounded=0;orthogonalLoop=1;jettySize=auto;html=1;exitX=0.5;exitY=1;exitDx=0;exitDy=0;entryX=0.5;entryY=0;entryDx=0;entryDy=0;" edge="1" parent="1" source="yG7ckfpjS0qrGn7PJrxm-178" target="yG7ckfpjS0qrGn7PJrxm-262">
          <mxGeometry relative="1" as="geometry">
            <mxPoint x="1840" y="2630" as="targetPoint" />
          </mxGeometry>
        </mxCell>
        <mxCell id="yG7ckfpjS0qrGn7PJrxm-178" value="HashMap" style="rounded=1;whiteSpace=wrap;html=1;fillColor=#b0e3e6;strokeColor=#0e8088;" vertex="1" parent="1">
          <mxGeometry x="1780" y="2430" width="120" height="60" as="geometry" />
        </mxCell>
        <mxCell id="yG7ckfpjS0qrGn7PJrxm-179" style="edgeStyle=orthogonalEdgeStyle;rounded=0;orthogonalLoop=1;jettySize=auto;html=1;exitX=1;exitY=0.5;exitDx=0;exitDy=0;entryX=0.5;entryY=0;entryDx=0;entryDy=0;" edge="1" parent="1" source="yG7ckfpjS0qrGn7PJrxm-180" target="yG7ckfpjS0qrGn7PJrxm-305">
          <mxGeometry relative="1" as="geometry" />
        </mxCell>
        <mxCell id="yG7ckfpjS0qrGn7PJrxm-180" value="TreeMap" style="rounded=1;whiteSpace=wrap;html=1;fillColor=#b0e3e6;strokeColor=#0e8088;" vertex="1" parent="1">
          <mxGeometry x="1930" y="2430" width="120" height="60" as="geometry" />
        </mxCell>
        <mxCell id="yG7ckfpjS0qrGn7PJrxm-181" value="接口" style="text;html=1;align=center;verticalAlign=middle;whiteSpace=wrap;rounded=0;" vertex="1" parent="1">
          <mxGeometry x="1922" y="2235" width="50" height="20" as="geometry" />
        </mxCell>
        <mxCell id="yG7ckfpjS0qrGn7PJrxm-182" value="" style="edgeStyle=orthogonalEdgeStyle;rounded=0;orthogonalLoop=1;jettySize=auto;html=1;entryX=0.5;entryY=0;entryDx=0;entryDy=0;" edge="1" parent="1" source="yG7ckfpjS0qrGn7PJrxm-184" target="yG7ckfpjS0qrGn7PJrxm-200">
          <mxGeometry relative="1" as="geometry" />
        </mxCell>
        <mxCell id="yG7ckfpjS0qrGn7PJrxm-183" value="LinkedList" style="edgeLabel;html=1;align=center;verticalAlign=middle;resizable=0;points=[];" vertex="1" connectable="0" parent="yG7ckfpjS0qrGn7PJrxm-182">
          <mxGeometry x="-0.2684" y="1" relative="1" as="geometry">
            <mxPoint as="offset" />
          </mxGeometry>
        </mxCell>
        <mxCell id="yG7ckfpjS0qrGn7PJrxm-184" value="主要方法" style="shape=table;startSize=30;container=1;collapsible=0;childLayout=tableLayout;fixedRows=1;rowLines=0;fontStyle=0;strokeColor=default;fontSize=16;" vertex="1" parent="1">
          <mxGeometry y="2560" width="830" height="220" as="geometry" />
        </mxCell>
        <mxCell id="yG7ckfpjS0qrGn7PJrxm-185" value="" style="shape=tableRow;horizontal=0;startSize=0;swimlaneHead=0;swimlaneBody=0;top=0;left=0;bottom=0;right=0;collapsible=0;dropTarget=0;fillColor=none;points=[[0,0.5],[1,0.5]];portConstraint=eastwest;strokeColor=inherit;fontSize=16;" vertex="1" parent="yG7ckfpjS0qrGn7PJrxm-184">
          <mxGeometry y="30" width="830" height="50" as="geometry" />
        </mxCell>
        <mxCell id="yG7ckfpjS0qrGn7PJrxm-186" value="void add(int index, Object obj)" style="shape=partialRectangle;html=1;whiteSpace=wrap;connectable=0;fillColor=none;top=0;left=0;bottom=0;right=0;overflow=hidden;pointerEvents=1;strokeColor=inherit;fontSize=16;" vertex="1" parent="yG7ckfpjS0qrGn7PJrxm-185">
          <mxGeometry width="275" height="50" as="geometry">
            <mxRectangle width="275" height="50" as="alternateBounds" />
          </mxGeometry>
        </mxCell>
        <mxCell id="yG7ckfpjS0qrGn7PJrxm-187" value="将obj调用列表，插入位置的下表由index传递。任何已存在的，在插入点以后的元素将前移，因此没有元素被覆盖。" style="shape=partialRectangle;html=1;whiteSpace=wrap;connectable=0;fillColor=none;top=0;left=0;bottom=0;right=0;align=left;spacingLeft=6;overflow=hidden;strokeColor=inherit;fontSize=16;" vertex="1" parent="yG7ckfpjS0qrGn7PJrxm-185">
          <mxGeometry x="275" width="555" height="50" as="geometry">
            <mxRectangle width="555" height="50" as="alternateBounds" />
          </mxGeometry>
        </mxCell>
        <mxCell id="yG7ckfpjS0qrGn7PJrxm-188" value="" style="shape=tableRow;horizontal=0;startSize=0;swimlaneHead=0;swimlaneBody=0;top=0;left=0;bottom=0;right=0;collapsible=0;dropTarget=0;fillColor=none;points=[[0,0.5],[1,0.5]];portConstraint=eastwest;strokeColor=inherit;fontSize=16;" vertex="1" parent="yG7ckfpjS0qrGn7PJrxm-184">
          <mxGeometry y="80" width="830" height="50" as="geometry" />
        </mxCell>
        <mxCell id="yG7ckfpjS0qrGn7PJrxm-189" value="Boolean addAll(int index, Collection c)" style="shape=partialRectangle;html=1;whiteSpace=wrap;connectable=0;fillColor=none;top=0;left=0;bottom=0;right=0;overflow=hidden;strokeColor=inherit;fontSize=16;" vertex="1" parent="yG7ckfpjS0qrGn7PJrxm-188">
          <mxGeometry width="275" height="50" as="geometry">
            <mxRectangle width="275" height="50" as="alternateBounds" />
          </mxGeometry>
        </mxCell>
        <mxCell id="yG7ckfpjS0qrGn7PJrxm-190" value="将c中所有元素插入到调用列表中，插入点的下表由index传递。" style="shape=partialRectangle;html=1;whiteSpace=wrap;connectable=0;fillColor=none;top=0;left=0;bottom=0;right=0;align=left;spacingLeft=6;overflow=hidden;strokeColor=inherit;fontSize=16;" vertex="1" parent="yG7ckfpjS0qrGn7PJrxm-188">
          <mxGeometry x="275" width="555" height="50" as="geometry">
            <mxRectangle width="555" height="50" as="alternateBounds" />
          </mxGeometry>
        </mxCell>
        <mxCell id="yG7ckfpjS0qrGn7PJrxm-191" value="" style="shape=tableRow;horizontal=0;startSize=0;swimlaneHead=0;swimlaneBody=0;top=0;left=0;bottom=0;right=0;collapsible=0;dropTarget=0;fillColor=none;points=[[0,0.5],[1,0.5]];portConstraint=eastwest;strokeColor=inherit;fontSize=16;" vertex="1" parent="yG7ckfpjS0qrGn7PJrxm-184">
          <mxGeometry y="130" width="830" height="30" as="geometry" />
        </mxCell>
        <mxCell id="yG7ckfpjS0qrGn7PJrxm-192" value="Object get(int index)" style="shape=partialRectangle;html=1;whiteSpace=wrap;connectable=0;fillColor=none;top=0;left=0;bottom=0;right=0;overflow=hidden;strokeColor=inherit;fontSize=16;" vertex="1" parent="yG7ckfpjS0qrGn7PJrxm-191">
          <mxGeometry width="275" height="30" as="geometry">
            <mxRectangle width="275" height="30" as="alternateBounds" />
          </mxGeometry>
        </mxCell>
        <mxCell id="yG7ckfpjS0qrGn7PJrxm-193" value="返回指定下标的对象。" style="shape=partialRectangle;html=1;whiteSpace=wrap;connectable=0;fillColor=none;top=0;left=0;bottom=0;right=0;align=left;spacingLeft=6;overflow=hidden;strokeColor=inherit;fontSize=16;" vertex="1" parent="yG7ckfpjS0qrGn7PJrxm-191">
          <mxGeometry x="275" width="555" height="30" as="geometry">
            <mxRectangle width="555" height="30" as="alternateBounds" />
          </mxGeometry>
        </mxCell>
        <mxCell id="yG7ckfpjS0qrGn7PJrxm-194" value="" style="shape=tableRow;horizontal=0;startSize=0;swimlaneHead=0;swimlaneBody=0;top=0;left=0;bottom=0;right=0;collapsible=0;dropTarget=0;fillColor=none;points=[[0,0.5],[1,0.5]];portConstraint=eastwest;strokeColor=inherit;fontSize=16;" vertex="1" parent="yG7ckfpjS0qrGn7PJrxm-184">
          <mxGeometry y="160" width="830" height="30" as="geometry" />
        </mxCell>
        <mxCell id="yG7ckfpjS0qrGn7PJrxm-195" value="Object set(int index, Object obj)" style="shape=partialRectangle;html=1;whiteSpace=wrap;connectable=0;fillColor=none;top=0;left=0;bottom=0;right=0;overflow=hidden;strokeColor=inherit;fontSize=16;" vertex="1" parent="yG7ckfpjS0qrGn7PJrxm-194">
          <mxGeometry width="275" height="30" as="geometry">
            <mxRectangle width="275" height="30" as="alternateBounds" />
          </mxGeometry>
        </mxCell>
        <mxCell id="yG7ckfpjS0qrGn7PJrxm-196" value="对由index指定的位置进行赋值。" style="shape=partialRectangle;html=1;whiteSpace=wrap;connectable=0;fillColor=none;top=0;left=0;bottom=0;right=0;align=left;spacingLeft=6;overflow=hidden;strokeColor=inherit;fontSize=16;" vertex="1" parent="yG7ckfpjS0qrGn7PJrxm-194">
          <mxGeometry x="275" width="555" height="30" as="geometry">
            <mxRectangle width="555" height="30" as="alternateBounds" />
          </mxGeometry>
        </mxCell>
        <mxCell id="yG7ckfpjS0qrGn7PJrxm-197" value="" style="shape=tableRow;horizontal=0;startSize=0;swimlaneHead=0;swimlaneBody=0;top=0;left=0;bottom=0;right=0;collapsible=0;dropTarget=0;fillColor=none;points=[[0,0.5],[1,0.5]];portConstraint=eastwest;strokeColor=inherit;fontSize=16;" vertex="1" parent="yG7ckfpjS0qrGn7PJrxm-184">
          <mxGeometry y="190" width="830" height="30" as="geometry" />
        </mxCell>
        <mxCell id="yG7ckfpjS0qrGn7PJrxm-198" value="int indexOf(Object obj)" style="shape=partialRectangle;html=1;whiteSpace=wrap;connectable=0;fillColor=none;top=0;left=0;bottom=0;right=0;overflow=hidden;strokeColor=inherit;fontSize=16;" vertex="1" parent="yG7ckfpjS0qrGn7PJrxm-197">
          <mxGeometry width="275" height="30" as="geometry">
            <mxRectangle width="275" height="30" as="alternateBounds" />
          </mxGeometry>
        </mxCell>
        <mxCell id="yG7ckfpjS0qrGn7PJrxm-199" value="返回调用列表obj得第一个实例的下标。如果obj不是列表元素，返回-1" style="shape=partialRectangle;html=1;whiteSpace=wrap;connectable=0;fillColor=none;top=0;left=0;bottom=0;right=0;align=left;spacingLeft=6;overflow=hidden;strokeColor=inherit;fontSize=16;" vertex="1" parent="yG7ckfpjS0qrGn7PJrxm-197">
          <mxGeometry x="275" width="555" height="30" as="geometry">
            <mxRectangle width="555" height="30" as="alternateBounds" />
          </mxGeometry>
        </mxCell>
        <mxCell id="yG7ckfpjS0qrGn7PJrxm-200" value="主要方法" style="shape=table;startSize=30;container=1;collapsible=0;childLayout=tableLayout;fixedRows=1;rowLines=0;fontStyle=0;strokeColor=default;fontSize=16;" vertex="1" parent="1">
          <mxGeometry y="2840" width="830" height="210" as="geometry" />
        </mxCell>
        <mxCell id="yG7ckfpjS0qrGn7PJrxm-201" value="" style="shape=tableRow;horizontal=0;startSize=0;swimlaneHead=0;swimlaneBody=0;top=0;left=0;bottom=0;right=0;collapsible=0;dropTarget=0;fillColor=none;points=[[0,0.5],[1,0.5]];portConstraint=eastwest;strokeColor=inherit;fontSize=16;" vertex="1" parent="yG7ckfpjS0qrGn7PJrxm-200">
          <mxGeometry y="30" width="830" height="30" as="geometry" />
        </mxCell>
        <mxCell id="yG7ckfpjS0qrGn7PJrxm-202" value="addFirst(Object obj)" style="shape=partialRectangle;html=1;whiteSpace=wrap;connectable=0;fillColor=none;top=0;left=0;bottom=0;right=0;overflow=hidden;pointerEvents=1;strokeColor=inherit;fontSize=16;" vertex="1" parent="yG7ckfpjS0qrGn7PJrxm-201">
          <mxGeometry width="275" height="30" as="geometry">
            <mxRectangle width="275" height="30" as="alternateBounds" />
          </mxGeometry>
        </mxCell>
        <mxCell id="yG7ckfpjS0qrGn7PJrxm-203" value="可以在列表头增加元素" style="shape=partialRectangle;html=1;whiteSpace=wrap;connectable=0;fillColor=none;top=0;left=0;bottom=0;right=0;align=left;spacingLeft=6;overflow=hidden;strokeColor=inherit;fontSize=16;" vertex="1" parent="yG7ckfpjS0qrGn7PJrxm-201">
          <mxGeometry x="275" width="555" height="30" as="geometry">
            <mxRectangle width="555" height="30" as="alternateBounds" />
          </mxGeometry>
        </mxCell>
        <mxCell id="yG7ckfpjS0qrGn7PJrxm-204" value="" style="shape=tableRow;horizontal=0;startSize=0;swimlaneHead=0;swimlaneBody=0;top=0;left=0;bottom=0;right=0;collapsible=0;dropTarget=0;fillColor=none;points=[[0,0.5],[1,0.5]];portConstraint=eastwest;strokeColor=inherit;fontSize=16;" vertex="1" parent="yG7ckfpjS0qrGn7PJrxm-200">
          <mxGeometry y="60" width="830" height="30" as="geometry" />
        </mxCell>
        <mxCell id="yG7ckfpjS0qrGn7PJrxm-205" value="addLast(Object obj)" style="shape=partialRectangle;html=1;whiteSpace=wrap;connectable=0;fillColor=none;top=0;left=0;bottom=0;right=0;overflow=hidden;strokeColor=inherit;fontSize=16;" vertex="1" parent="yG7ckfpjS0qrGn7PJrxm-204">
          <mxGeometry width="275" height="30" as="geometry">
            <mxRectangle width="275" height="30" as="alternateBounds" />
          </mxGeometry>
        </mxCell>
        <mxCell id="yG7ckfpjS0qrGn7PJrxm-206" value="可以在列表尾增加元素" style="shape=partialRectangle;html=1;whiteSpace=wrap;connectable=0;fillColor=none;top=0;left=0;bottom=0;right=0;align=left;spacingLeft=6;overflow=hidden;strokeColor=inherit;fontSize=16;" vertex="1" parent="yG7ckfpjS0qrGn7PJrxm-204">
          <mxGeometry x="275" width="555" height="30" as="geometry">
            <mxRectangle width="555" height="30" as="alternateBounds" />
          </mxGeometry>
        </mxCell>
        <mxCell id="yG7ckfpjS0qrGn7PJrxm-207" value="" style="shape=tableRow;horizontal=0;startSize=0;swimlaneHead=0;swimlaneBody=0;top=0;left=0;bottom=0;right=0;collapsible=0;dropTarget=0;fillColor=none;points=[[0,0.5],[1,0.5]];portConstraint=eastwest;strokeColor=inherit;fontSize=16;" vertex="1" parent="yG7ckfpjS0qrGn7PJrxm-200">
          <mxGeometry y="90" width="830" height="30" as="geometry" />
        </mxCell>
        <mxCell id="yG7ckfpjS0qrGn7PJrxm-208" value="getFirst()" style="shape=partialRectangle;html=1;whiteSpace=wrap;connectable=0;fillColor=none;top=0;left=0;bottom=0;right=0;overflow=hidden;strokeColor=inherit;fontSize=16;" vertex="1" parent="yG7ckfpjS0qrGn7PJrxm-207">
          <mxGeometry width="275" height="30" as="geometry">
            <mxRectangle width="275" height="30" as="alternateBounds" />
          </mxGeometry>
        </mxCell>
        <mxCell id="yG7ckfpjS0qrGn7PJrxm-209" value="获取第一个元素" style="shape=partialRectangle;html=1;whiteSpace=wrap;connectable=0;fillColor=none;top=0;left=0;bottom=0;right=0;align=left;spacingLeft=6;overflow=hidden;strokeColor=inherit;fontSize=16;" vertex="1" parent="yG7ckfpjS0qrGn7PJrxm-207">
          <mxGeometry x="275" width="555" height="30" as="geometry">
            <mxRectangle width="555" height="30" as="alternateBounds" />
          </mxGeometry>
        </mxCell>
        <mxCell id="yG7ckfpjS0qrGn7PJrxm-210" value="" style="shape=tableRow;horizontal=0;startSize=0;swimlaneHead=0;swimlaneBody=0;top=0;left=0;bottom=0;right=0;collapsible=0;dropTarget=0;fillColor=none;points=[[0,0.5],[1,0.5]];portConstraint=eastwest;strokeColor=inherit;fontSize=16;" vertex="1" parent="yG7ckfpjS0qrGn7PJrxm-200">
          <mxGeometry y="120" width="830" height="30" as="geometry" />
        </mxCell>
        <mxCell id="yG7ckfpjS0qrGn7PJrxm-211" value="getLast()" style="shape=partialRectangle;html=1;whiteSpace=wrap;connectable=0;fillColor=none;top=0;left=0;bottom=0;right=0;overflow=hidden;strokeColor=inherit;fontSize=16;" vertex="1" parent="yG7ckfpjS0qrGn7PJrxm-210">
          <mxGeometry width="275" height="30" as="geometry">
            <mxRectangle width="275" height="30" as="alternateBounds" />
          </mxGeometry>
        </mxCell>
        <mxCell id="yG7ckfpjS0qrGn7PJrxm-212" value="获取最后一个元素" style="shape=partialRectangle;html=1;whiteSpace=wrap;connectable=0;fillColor=none;top=0;left=0;bottom=0;right=0;align=left;spacingLeft=6;overflow=hidden;strokeColor=inherit;fontSize=16;" vertex="1" parent="yG7ckfpjS0qrGn7PJrxm-210">
          <mxGeometry x="275" width="555" height="30" as="geometry">
            <mxRectangle width="555" height="30" as="alternateBounds" />
          </mxGeometry>
        </mxCell>
        <mxCell id="yG7ckfpjS0qrGn7PJrxm-213" value="" style="shape=tableRow;horizontal=0;startSize=0;swimlaneHead=0;swimlaneBody=0;top=0;left=0;bottom=0;right=0;collapsible=0;dropTarget=0;fillColor=none;points=[[0,0.5],[1,0.5]];portConstraint=eastwest;strokeColor=inherit;fontSize=16;" vertex="1" parent="yG7ckfpjS0qrGn7PJrxm-200">
          <mxGeometry y="150" width="830" height="30" as="geometry" />
        </mxCell>
        <mxCell id="yG7ckfpjS0qrGn7PJrxm-214" value="removeFirst()" style="shape=partialRectangle;html=1;whiteSpace=wrap;connectable=0;fillColor=none;top=0;left=0;bottom=0;right=0;overflow=hidden;strokeColor=inherit;fontSize=16;" vertex="1" parent="yG7ckfpjS0qrGn7PJrxm-213">
          <mxGeometry width="275" height="30" as="geometry">
            <mxRectangle width="275" height="30" as="alternateBounds" />
          </mxGeometry>
        </mxCell>
        <mxCell id="yG7ckfpjS0qrGn7PJrxm-215" value="可以删除第一个元素" style="shape=partialRectangle;html=1;whiteSpace=wrap;connectable=0;fillColor=none;top=0;left=0;bottom=0;right=0;align=left;spacingLeft=6;overflow=hidden;strokeColor=inherit;fontSize=16;" vertex="1" parent="yG7ckfpjS0qrGn7PJrxm-213">
          <mxGeometry x="275" width="555" height="30" as="geometry">
            <mxRectangle width="555" height="30" as="alternateBounds" />
          </mxGeometry>
        </mxCell>
        <mxCell id="yG7ckfpjS0qrGn7PJrxm-216" value="" style="shape=tableRow;horizontal=0;startSize=0;swimlaneHead=0;swimlaneBody=0;top=0;left=0;bottom=0;right=0;collapsible=0;dropTarget=0;fillColor=none;points=[[0,0.5],[1,0.5]];portConstraint=eastwest;strokeColor=inherit;fontSize=16;" vertex="1" parent="yG7ckfpjS0qrGn7PJrxm-200">
          <mxGeometry y="180" width="830" height="30" as="geometry" />
        </mxCell>
        <mxCell id="yG7ckfpjS0qrGn7PJrxm-217" value="removeLast()" style="shape=partialRectangle;html=1;whiteSpace=wrap;connectable=0;fillColor=none;top=0;left=0;bottom=0;right=0;overflow=hidden;strokeColor=inherit;fontSize=16;" vertex="1" parent="yG7ckfpjS0qrGn7PJrxm-216">
          <mxGeometry width="275" height="30" as="geometry">
            <mxRectangle width="275" height="30" as="alternateBounds" />
          </mxGeometry>
        </mxCell>
        <mxCell id="yG7ckfpjS0qrGn7PJrxm-218" value="可以删除最后一个元素" style="shape=partialRectangle;html=1;whiteSpace=wrap;connectable=0;fillColor=none;top=0;left=0;bottom=0;right=0;align=left;spacingLeft=6;overflow=hidden;strokeColor=inherit;fontSize=16;" vertex="1" parent="yG7ckfpjS0qrGn7PJrxm-216">
          <mxGeometry x="275" width="555" height="30" as="geometry">
            <mxRectangle width="555" height="30" as="alternateBounds" />
          </mxGeometry>
        </mxCell>
        <mxCell id="yG7ckfpjS0qrGn7PJrxm-219" value="ArrayList与LinkedList&lt;div&gt;&lt;ol&gt;&lt;li&gt;ArrayList和LinkedList顾名思义，ArrayList是Array（动态数组）的数据结构，相当于动态数组；LinkedList是（链表）的双向数据结构，也可当作堆栈、队列、双端队列。&lt;/li&gt;&lt;li&gt;对于随机访问List时（get和set操作），ArrayList比LinkedList的效率更高，因为LinkedList是线性存储方式，所以需要移动指针从前往后依次查找。&lt;/li&gt;&lt;li&gt;对于新增和删除操作（add和remove），LinkedList比较占优势，因为ArrayList要移动数据。&lt;/li&gt;&lt;li&gt;两者缺点都为线程不安全&lt;/li&gt;&lt;/ol&gt;&lt;/div&gt;" style="rounded=1;whiteSpace=wrap;html=1;" vertex="1" parent="1">
          <mxGeometry x="160" y="2145" width="350" height="280" as="geometry" />
        </mxCell>
        <mxCell id="yG7ckfpjS0qrGn7PJrxm-220" style="edgeStyle=orthogonalEdgeStyle;rounded=0;orthogonalLoop=1;jettySize=auto;html=1;entryX=0.5;entryY=0;entryDx=0;entryDy=0;exitX=0;exitY=0.5;exitDx=0;exitDy=0;" edge="1" parent="1" source="yG7ckfpjS0qrGn7PJrxm-226" target="yG7ckfpjS0qrGn7PJrxm-227">
          <mxGeometry relative="1" as="geometry" />
        </mxCell>
        <mxCell id="yG7ckfpjS0qrGn7PJrxm-221" value="HashSet（不允许重复、无序）" style="edgeLabel;html=1;align=center;verticalAlign=middle;resizable=0;points=[];" vertex="1" connectable="0" parent="yG7ckfpjS0qrGn7PJrxm-220">
          <mxGeometry x="0.2784" y="2" relative="1" as="geometry">
            <mxPoint as="offset" />
          </mxGeometry>
        </mxCell>
        <mxCell id="yG7ckfpjS0qrGn7PJrxm-222" style="edgeStyle=orthogonalEdgeStyle;rounded=0;orthogonalLoop=1;jettySize=auto;html=1;exitX=0;exitY=0.75;exitDx=0;exitDy=0;" edge="1" parent="1" source="yG7ckfpjS0qrGn7PJrxm-226">
          <mxGeometry relative="1" as="geometry">
            <mxPoint x="1140" y="2950" as="targetPoint" />
          </mxGeometry>
        </mxCell>
        <mxCell id="yG7ckfpjS0qrGn7PJrxm-223" value="LinkedHashSet" style="edgeLabel;html=1;align=center;verticalAlign=middle;resizable=0;points=[];" vertex="1" connectable="0" parent="yG7ckfpjS0qrGn7PJrxm-222">
          <mxGeometry x="0.3267" y="2" relative="1" as="geometry">
            <mxPoint as="offset" />
          </mxGeometry>
        </mxCell>
        <mxCell id="yG7ckfpjS0qrGn7PJrxm-224" style="edgeStyle=orthogonalEdgeStyle;rounded=0;orthogonalLoop=1;jettySize=auto;html=1;exitX=1;exitY=0.75;exitDx=0;exitDy=0;" edge="1" parent="1" source="yG7ckfpjS0qrGn7PJrxm-226">
          <mxGeometry relative="1" as="geometry">
            <mxPoint x="1680" y="2969.9999999999995" as="targetPoint" />
            <Array as="points">
              <mxPoint x="1680" y="2656" />
            </Array>
          </mxGeometry>
        </mxCell>
        <mxCell id="yG7ckfpjS0qrGn7PJrxm-225" value="TreeSet" style="edgeLabel;html=1;align=center;verticalAlign=middle;resizable=0;points=[];" vertex="1" connectable="0" parent="yG7ckfpjS0qrGn7PJrxm-224">
          <mxGeometry x="0.2038" relative="1" as="geometry">
            <mxPoint as="offset" />
          </mxGeometry>
        </mxCell>
        <mxCell id="yG7ckfpjS0qrGn7PJrxm-226" value="Set集合&lt;div&gt;&lt;ul&gt;&lt;li&gt;Set集合中的对象不按特定的方式排序，只是简单的将对象加入到集合中，但是Set集合不能包括重复对象。&lt;/li&gt;&lt;li&gt;Set接口继承了Collection接口，因此也包含了Collection接口的所有方法。&lt;/li&gt;&lt;/ul&gt;&lt;/div&gt;" style="rounded=1;whiteSpace=wrap;html=1;" vertex="1" parent="1">
          <mxGeometry x="1263" y="2510" width="332" height="195" as="geometry" />
        </mxCell>
        <mxCell id="yG7ckfpjS0qrGn7PJrxm-227" value="主要方法" style="shape=table;startSize=30;container=1;collapsible=0;childLayout=tableLayout;fixedRows=1;rowLines=0;fontStyle=0;strokeColor=default;fontSize=16;" vertex="1" parent="1">
          <mxGeometry x="600" y="3140" width="830" height="290" as="geometry" />
        </mxCell>
        <mxCell id="yG7ckfpjS0qrGn7PJrxm-228" value="" style="shape=tableRow;horizontal=0;startSize=0;swimlaneHead=0;swimlaneBody=0;top=0;left=0;bottom=0;right=0;collapsible=0;dropTarget=0;fillColor=none;points=[[0,0.5],[1,0.5]];portConstraint=eastwest;strokeColor=inherit;fontSize=16;" vertex="1" parent="yG7ckfpjS0qrGn7PJrxm-227">
          <mxGeometry y="30" width="830" height="40" as="geometry" />
        </mxCell>
        <mxCell id="yG7ckfpjS0qrGn7PJrxm-229" value="boolean add(E e)" style="shape=partialRectangle;html=1;whiteSpace=wrap;connectable=0;fillColor=none;top=0;left=0;bottom=0;right=0;overflow=hidden;pointerEvents=1;strokeColor=inherit;fontSize=16;" vertex="1" parent="yG7ckfpjS0qrGn7PJrxm-228">
          <mxGeometry width="275" height="40" as="geometry">
            <mxRectangle width="275" height="40" as="alternateBounds" />
          </mxGeometry>
        </mxCell>
        <mxCell id="yG7ckfpjS0qrGn7PJrxm-230" value="如果此set中尚未包含指定元素，则添加指定元素" style="shape=partialRectangle;html=1;whiteSpace=wrap;connectable=0;fillColor=none;top=0;left=0;bottom=0;right=0;align=left;spacingLeft=6;overflow=hidden;strokeColor=inherit;fontSize=16;" vertex="1" parent="yG7ckfpjS0qrGn7PJrxm-228">
          <mxGeometry x="275" width="555" height="40" as="geometry">
            <mxRectangle width="555" height="40" as="alternateBounds" />
          </mxGeometry>
        </mxCell>
        <mxCell id="yG7ckfpjS0qrGn7PJrxm-231" value="" style="shape=tableRow;horizontal=0;startSize=0;swimlaneHead=0;swimlaneBody=0;top=0;left=0;bottom=0;right=0;collapsible=0;dropTarget=0;fillColor=none;points=[[0,0.5],[1,0.5]];portConstraint=eastwest;strokeColor=inherit;fontSize=16;" vertex="1" parent="yG7ckfpjS0qrGn7PJrxm-227">
          <mxGeometry y="70" width="830" height="40" as="geometry" />
        </mxCell>
        <mxCell id="yG7ckfpjS0qrGn7PJrxm-232" value="void clear()" style="shape=partialRectangle;html=1;whiteSpace=wrap;connectable=0;fillColor=none;top=0;left=0;bottom=0;right=0;overflow=hidden;strokeColor=inherit;fontSize=16;" vertex="1" parent="yG7ckfpjS0qrGn7PJrxm-231">
          <mxGeometry width="275" height="40" as="geometry">
            <mxRectangle width="275" height="40" as="alternateBounds" />
          </mxGeometry>
        </mxCell>
        <mxCell id="yG7ckfpjS0qrGn7PJrxm-233" value="从此set中移除所有元素" style="shape=partialRectangle;html=1;whiteSpace=wrap;connectable=0;fillColor=none;top=0;left=0;bottom=0;right=0;align=left;spacingLeft=6;overflow=hidden;strokeColor=inherit;fontSize=16;" vertex="1" parent="yG7ckfpjS0qrGn7PJrxm-231">
          <mxGeometry x="275" width="555" height="40" as="geometry">
            <mxRectangle width="555" height="40" as="alternateBounds" />
          </mxGeometry>
        </mxCell>
        <mxCell id="yG7ckfpjS0qrGn7PJrxm-234" value="" style="shape=tableRow;horizontal=0;startSize=0;swimlaneHead=0;swimlaneBody=0;top=0;left=0;bottom=0;right=0;collapsible=0;dropTarget=0;fillColor=none;points=[[0,0.5],[1,0.5]];portConstraint=eastwest;strokeColor=inherit;fontSize=16;" vertex="1" parent="yG7ckfpjS0qrGn7PJrxm-227">
          <mxGeometry y="110" width="830" height="30" as="geometry" />
        </mxCell>
        <mxCell id="yG7ckfpjS0qrGn7PJrxm-235" value="Object clone()" style="shape=partialRectangle;html=1;whiteSpace=wrap;connectable=0;fillColor=none;top=0;left=0;bottom=0;right=0;overflow=hidden;strokeColor=inherit;fontSize=16;" vertex="1" parent="yG7ckfpjS0qrGn7PJrxm-234">
          <mxGeometry width="275" height="30" as="geometry">
            <mxRectangle width="275" height="30" as="alternateBounds" />
          </mxGeometry>
        </mxCell>
        <mxCell id="yG7ckfpjS0qrGn7PJrxm-236" value="返回此HashSet实例的浅表副本：并没有复制这些元素本身" style="shape=partialRectangle;html=1;whiteSpace=wrap;connectable=0;fillColor=none;top=0;left=0;bottom=0;right=0;align=left;spacingLeft=6;overflow=hidden;strokeColor=inherit;fontSize=16;" vertex="1" parent="yG7ckfpjS0qrGn7PJrxm-234">
          <mxGeometry x="275" width="555" height="30" as="geometry">
            <mxRectangle width="555" height="30" as="alternateBounds" />
          </mxGeometry>
        </mxCell>
        <mxCell id="yG7ckfpjS0qrGn7PJrxm-237" value="" style="shape=tableRow;horizontal=0;startSize=0;swimlaneHead=0;swimlaneBody=0;top=0;left=0;bottom=0;right=0;collapsible=0;dropTarget=0;fillColor=none;points=[[0,0.5],[1,0.5]];portConstraint=eastwest;strokeColor=inherit;fontSize=16;" vertex="1" parent="yG7ckfpjS0qrGn7PJrxm-227">
          <mxGeometry y="140" width="830" height="30" as="geometry" />
        </mxCell>
        <mxCell id="yG7ckfpjS0qrGn7PJrxm-238" value="boolean contains(Object o)" style="shape=partialRectangle;html=1;whiteSpace=wrap;connectable=0;fillColor=none;top=0;left=0;bottom=0;right=0;overflow=hidden;strokeColor=inherit;fontSize=16;" vertex="1" parent="yG7ckfpjS0qrGn7PJrxm-237">
          <mxGeometry width="275" height="30" as="geometry">
            <mxRectangle width="275" height="30" as="alternateBounds" />
          </mxGeometry>
        </mxCell>
        <mxCell id="yG7ckfpjS0qrGn7PJrxm-239" value="如果此Set包含指定元素，则返回true" style="shape=partialRectangle;html=1;whiteSpace=wrap;connectable=0;fillColor=none;top=0;left=0;bottom=0;right=0;align=left;spacingLeft=6;overflow=hidden;strokeColor=inherit;fontSize=16;" vertex="1" parent="yG7ckfpjS0qrGn7PJrxm-237">
          <mxGeometry x="275" width="555" height="30" as="geometry">
            <mxRectangle width="555" height="30" as="alternateBounds" />
          </mxGeometry>
        </mxCell>
        <mxCell id="yG7ckfpjS0qrGn7PJrxm-240" value="" style="shape=tableRow;horizontal=0;startSize=0;swimlaneHead=0;swimlaneBody=0;top=0;left=0;bottom=0;right=0;collapsible=0;dropTarget=0;fillColor=none;points=[[0,0.5],[1,0.5]];portConstraint=eastwest;strokeColor=inherit;fontSize=16;" vertex="1" parent="yG7ckfpjS0qrGn7PJrxm-227">
          <mxGeometry y="170" width="830" height="30" as="geometry" />
        </mxCell>
        <mxCell id="yG7ckfpjS0qrGn7PJrxm-241" value="boolean isEmpty()" style="shape=partialRectangle;html=1;whiteSpace=wrap;connectable=0;fillColor=none;top=0;left=0;bottom=0;right=0;overflow=hidden;strokeColor=inherit;fontSize=16;" vertex="1" parent="yG7ckfpjS0qrGn7PJrxm-240">
          <mxGeometry width="275" height="30" as="geometry">
            <mxRectangle width="275" height="30" as="alternateBounds" />
          </mxGeometry>
        </mxCell>
        <mxCell id="yG7ckfpjS0qrGn7PJrxm-242" value="如果此set不包含任何元素，则返回true" style="shape=partialRectangle;html=1;whiteSpace=wrap;connectable=0;fillColor=none;top=0;left=0;bottom=0;right=0;align=left;spacingLeft=6;overflow=hidden;strokeColor=inherit;fontSize=16;" vertex="1" parent="yG7ckfpjS0qrGn7PJrxm-240">
          <mxGeometry x="275" width="555" height="30" as="geometry">
            <mxRectangle width="555" height="30" as="alternateBounds" />
          </mxGeometry>
        </mxCell>
        <mxCell id="yG7ckfpjS0qrGn7PJrxm-243" value="" style="shape=tableRow;horizontal=0;startSize=0;swimlaneHead=0;swimlaneBody=0;top=0;left=0;bottom=0;right=0;collapsible=0;dropTarget=0;fillColor=none;points=[[0,0.5],[1,0.5]];portConstraint=eastwest;strokeColor=inherit;fontSize=16;" vertex="1" parent="yG7ckfpjS0qrGn7PJrxm-227">
          <mxGeometry y="200" width="830" height="30" as="geometry" />
        </mxCell>
        <mxCell id="yG7ckfpjS0qrGn7PJrxm-244" value="Iterator&amp;lt;E&amp;gt; iterator()" style="shape=partialRectangle;html=1;whiteSpace=wrap;connectable=0;fillColor=none;top=0;left=0;bottom=0;right=0;overflow=hidden;strokeColor=inherit;fontSize=16;" vertex="1" parent="yG7ckfpjS0qrGn7PJrxm-243">
          <mxGeometry width="275" height="30" as="geometry">
            <mxRectangle width="275" height="30" as="alternateBounds" />
          </mxGeometry>
        </mxCell>
        <mxCell id="yG7ckfpjS0qrGn7PJrxm-245" value="返回对此set中元素进行迭代的迭代器" style="shape=partialRectangle;html=1;whiteSpace=wrap;connectable=0;fillColor=none;top=0;left=0;bottom=0;right=0;align=left;spacingLeft=6;overflow=hidden;strokeColor=inherit;fontSize=16;" vertex="1" parent="yG7ckfpjS0qrGn7PJrxm-243">
          <mxGeometry x="275" width="555" height="30" as="geometry">
            <mxRectangle width="555" height="30" as="alternateBounds" />
          </mxGeometry>
        </mxCell>
        <mxCell id="yG7ckfpjS0qrGn7PJrxm-246" value="" style="shape=tableRow;horizontal=0;startSize=0;swimlaneHead=0;swimlaneBody=0;top=0;left=0;bottom=0;right=0;collapsible=0;dropTarget=0;fillColor=none;points=[[0,0.5],[1,0.5]];portConstraint=eastwest;strokeColor=inherit;fontSize=16;" vertex="1" parent="yG7ckfpjS0qrGn7PJrxm-227">
          <mxGeometry y="230" width="830" height="30" as="geometry" />
        </mxCell>
        <mxCell id="yG7ckfpjS0qrGn7PJrxm-247" value="boolean remove(Object o)" style="shape=partialRectangle;html=1;whiteSpace=wrap;connectable=0;fillColor=none;top=0;left=0;bottom=0;right=0;overflow=hidden;strokeColor=inherit;fontSize=16;" vertex="1" parent="yG7ckfpjS0qrGn7PJrxm-246">
          <mxGeometry width="275" height="30" as="geometry">
            <mxRectangle width="275" height="30" as="alternateBounds" />
          </mxGeometry>
        </mxCell>
        <mxCell id="yG7ckfpjS0qrGn7PJrxm-248" value="如果指定元素存在于此set中，则将其移除" style="shape=partialRectangle;html=1;whiteSpace=wrap;connectable=0;fillColor=none;top=0;left=0;bottom=0;right=0;align=left;spacingLeft=6;overflow=hidden;strokeColor=inherit;fontSize=16;" vertex="1" parent="yG7ckfpjS0qrGn7PJrxm-246">
          <mxGeometry x="275" width="555" height="30" as="geometry">
            <mxRectangle width="555" height="30" as="alternateBounds" />
          </mxGeometry>
        </mxCell>
        <mxCell id="yG7ckfpjS0qrGn7PJrxm-249" value="" style="shape=tableRow;horizontal=0;startSize=0;swimlaneHead=0;swimlaneBody=0;top=0;left=0;bottom=0;right=0;collapsible=0;dropTarget=0;fillColor=none;points=[[0,0.5],[1,0.5]];portConstraint=eastwest;strokeColor=inherit;fontSize=16;" vertex="1" parent="yG7ckfpjS0qrGn7PJrxm-227">
          <mxGeometry y="260" width="830" height="30" as="geometry" />
        </mxCell>
        <mxCell id="yG7ckfpjS0qrGn7PJrxm-250" value="int size()" style="shape=partialRectangle;html=1;whiteSpace=wrap;connectable=0;fillColor=none;top=0;left=0;bottom=0;right=0;overflow=hidden;strokeColor=inherit;fontSize=16;" vertex="1" parent="yG7ckfpjS0qrGn7PJrxm-249">
          <mxGeometry width="275" height="30" as="geometry">
            <mxRectangle width="275" height="30" as="alternateBounds" />
          </mxGeometry>
        </mxCell>
        <mxCell id="yG7ckfpjS0qrGn7PJrxm-251" value="返回此set中的元素的数量（set的容量）" style="shape=partialRectangle;html=1;whiteSpace=wrap;connectable=0;fillColor=none;top=0;left=0;bottom=0;right=0;align=left;spacingLeft=6;overflow=hidden;strokeColor=inherit;fontSize=16;" vertex="1" parent="yG7ckfpjS0qrGn7PJrxm-249">
          <mxGeometry x="275" width="555" height="30" as="geometry">
            <mxRectangle width="555" height="30" as="alternateBounds" />
          </mxGeometry>
        </mxCell>
        <mxCell id="yG7ckfpjS0qrGn7PJrxm-252" value="特点：有序、唯一、效率高" style="rounded=1;whiteSpace=wrap;html=1;" vertex="1" parent="1">
          <mxGeometry x="1066" y="2950" width="260" height="130" as="geometry" />
        </mxCell>
        <mxCell id="yG7ckfpjS0qrGn7PJrxm-253" style="edgeStyle=orthogonalEdgeStyle;rounded=0;orthogonalLoop=1;jettySize=auto;html=1;exitX=0.25;exitY=1;exitDx=0;exitDy=0;" edge="1" parent="1" source="yG7ckfpjS0qrGn7PJrxm-255">
          <mxGeometry relative="1" as="geometry">
            <mxPoint x="1558.272727272727" y="3200" as="targetPoint" />
          </mxGeometry>
        </mxCell>
        <mxCell id="yG7ckfpjS0qrGn7PJrxm-254" style="edgeStyle=orthogonalEdgeStyle;rounded=0;orthogonalLoop=1;jettySize=auto;html=1;exitX=0.75;exitY=1;exitDx=0;exitDy=0;" edge="1" parent="1" source="yG7ckfpjS0qrGn7PJrxm-255" target="yG7ckfpjS0qrGn7PJrxm-257">
          <mxGeometry relative="1" as="geometry" />
        </mxCell>
        <mxCell id="yG7ckfpjS0qrGn7PJrxm-255" value="TreeSet集合不允许重复，且TreeSet对Integer、String数据类型进行升序排序" style="rounded=1;whiteSpace=wrap;html=1;" vertex="1" parent="1">
          <mxGeometry x="1493.5" y="2950" width="260" height="130" as="geometry" />
        </mxCell>
        <mxCell id="yG7ckfpjS0qrGn7PJrxm-256" value="外部比较器（Set&amp;lt;Object&amp;gt; set = new Set&amp;lt;&amp;gt;(外部比较器)）" style="rounded=1;whiteSpace=wrap;html=1;" vertex="1" parent="1">
          <mxGeometry x="1493.5" y="3200" width="120" height="60" as="geometry" />
        </mxCell>
        <mxCell id="yG7ckfpjS0qrGn7PJrxm-257" value="内部比较器&lt;div&gt;（实体类实现&lt;span style=&quot;color: rgb(94, 102, 135); font-family: &amp;quot;Source Code Pro&amp;quot;, &amp;quot;DejaVu Sans Mono&amp;quot;, &amp;quot;Ubuntu Mono&amp;quot;, &amp;quot;Anonymous Pro&amp;quot;, &amp;quot;Droid Sans Mono&amp;quot;, Menlo, Monaco, Consolas, Inconsolata, Courier, monospace, &amp;quot;PingFang SC&amp;quot;, &amp;quot;Microsoft YaHei&amp;quot;, sans-serif; font-size: 14px; font-variant-ligatures: no-common-ligatures; text-align: start; white-space: pre; background-color: rgb(243, 244, 245);&quot;&gt;Comparable&lt;/span&gt;）&lt;/div&gt;" style="rounded=1;whiteSpace=wrap;html=1;" vertex="1" parent="1">
          <mxGeometry x="1629" y="3200" width="120" height="60" as="geometry" />
        </mxCell>
        <mxCell id="yG7ckfpjS0qrGn7PJrxm-258" value="实现类" style="text;html=1;align=center;verticalAlign=middle;whiteSpace=wrap;rounded=0;" vertex="1" parent="1">
          <mxGeometry x="1846.5" y="2405" width="50" height="20" as="geometry" />
        </mxCell>
        <mxCell id="yG7ckfpjS0qrGn7PJrxm-259" value="实现类" style="text;html=1;align=center;verticalAlign=middle;whiteSpace=wrap;rounded=0;" vertex="1" parent="1">
          <mxGeometry x="1930" y="2405" width="50" height="20" as="geometry" />
        </mxCell>
        <mxCell id="yG7ckfpjS0qrGn7PJrxm-260" style="edgeStyle=orthogonalEdgeStyle;rounded=0;orthogonalLoop=1;jettySize=auto;html=1;exitX=1;exitY=0.5;exitDx=0;exitDy=0;entryX=0.5;entryY=0;entryDx=0;entryDy=0;" edge="1" parent="1" source="yG7ckfpjS0qrGn7PJrxm-262" target="yG7ckfpjS0qrGn7PJrxm-267">
          <mxGeometry relative="1" as="geometry" />
        </mxCell>
        <mxCell id="yG7ckfpjS0qrGn7PJrxm-261" value="HashMap" style="edgeLabel;html=1;align=center;verticalAlign=middle;resizable=0;points=[];" vertex="1" connectable="0" parent="yG7ckfpjS0qrGn7PJrxm-260">
          <mxGeometry x="0.2471" y="-5" relative="1" as="geometry">
            <mxPoint x="5" y="-1" as="offset" />
          </mxGeometry>
        </mxCell>
        <mxCell id="yG7ckfpjS0qrGn7PJrxm-262" value="Map集合没有继承Collection接口，其提供的是键到值得映射。Map不能包含相同得键，每个键只能映射一个值。键还决定了存储对象在映射中得存储位置。&lt;div&gt;HashMap集合特点：单一，无序&lt;/div&gt;" style="rounded=1;whiteSpace=wrap;html=1;" vertex="1" parent="1">
          <mxGeometry x="1709.5" y="2640" width="261" height="190" as="geometry" />
        </mxCell>
        <mxCell id="yG7ckfpjS0qrGn7PJrxm-263" style="edgeStyle=orthogonalEdgeStyle;rounded=0;orthogonalLoop=1;jettySize=auto;html=1;entryX=0.5;entryY=0;entryDx=0;entryDy=0;exitX=0.25;exitY=1;exitDx=0;exitDy=0;" edge="1" parent="1" source="yG7ckfpjS0qrGn7PJrxm-267">
          <mxGeometry relative="1" as="geometry">
            <mxPoint x="2000" y="3200" as="sourcePoint" />
            <mxPoint x="1939" y="3350" as="targetPoint" />
          </mxGeometry>
        </mxCell>
        <mxCell id="yG7ckfpjS0qrGn7PJrxm-264" value="HashMap" style="edgeLabel;html=1;align=center;verticalAlign=middle;resizable=0;points=[];" vertex="1" connectable="0" parent="yG7ckfpjS0qrGn7PJrxm-263">
          <mxGeometry x="-0.2463" y="1" relative="1" as="geometry">
            <mxPoint as="offset" />
          </mxGeometry>
        </mxCell>
        <mxCell id="yG7ckfpjS0qrGn7PJrxm-265" style="edgeStyle=orthogonalEdgeStyle;rounded=0;orthogonalLoop=1;jettySize=auto;html=1;exitX=0.75;exitY=1;exitDx=0;exitDy=0;entryX=0.5;entryY=0;entryDx=0;entryDy=0;" edge="1" parent="1" source="yG7ckfpjS0qrGn7PJrxm-267" target="yG7ckfpjS0qrGn7PJrxm-304">
          <mxGeometry relative="1" as="geometry">
            <mxPoint x="2450" y="3380" as="targetPoint" />
          </mxGeometry>
        </mxCell>
        <mxCell id="yG7ckfpjS0qrGn7PJrxm-266" value="HashTable与HashMap关联" style="edgeLabel;html=1;align=center;verticalAlign=middle;resizable=0;points=[];" vertex="1" connectable="0" parent="yG7ckfpjS0qrGn7PJrxm-265">
          <mxGeometry x="-0.0905" y="-3" relative="1" as="geometry">
            <mxPoint as="offset" />
          </mxGeometry>
        </mxCell>
        <mxCell id="yG7ckfpjS0qrGn7PJrxm-267" value="&lt;div style=&quot;text-align: center;&quot;&gt;&lt;span style=&quot;background-color: initial;&quot;&gt;常见异常：&lt;/span&gt;&lt;/div&gt;&lt;div&gt;&lt;ol&gt;&lt;li style=&quot;box-sizing: border-box; outline: 0px; margin: 8px 0px 0px 32px; padding: 0px; list-style-position: initial; list-style-image: initial; --el-button-hover-bg-color: #6D5FFD; --el-button-hover-border-color: #6D5FFD; --el-button-active-bg-color: #6D5FFD; --el-button-active-border-color: #6D5FFD; font-synthesis-style: auto; overflow-wrap: break-word; list-style-type: decimal !important;&quot;&gt;NoSuchElementException-----当调用的映射中没有元素存在时&lt;/li&gt;&lt;li style=&quot;box-sizing: border-box; outline: 0px; margin: 8px 0px 0px 32px; padding: 0px; list-style-position: initial; list-style-image: initial; font-synthesis-style: auto; overflow-wrap: break-word; list-style-type: decimal !important;&quot;&gt;ClassCastException-------对象与映射中的元素不兼容时&lt;/li&gt;&lt;li style=&quot;box-sizing: border-box; outline: 0px; margin: 8px 0px 0px 32px; padding: 0px; list-style-position: initial; list-style-image: initial; font-synthesis-style: auto; overflow-wrap: break-word; list-style-type: decimal !important;&quot;&gt;NullPointerException-------如果试图使用映射不允许使用的null对象时&lt;/li&gt;&lt;li style=&quot;box-sizing: border-box; outline: 0px; margin: 8px 0px 0px 32px; padding: 0px; list-style-position: initial; list-style-image: initial; font-synthesis-style: auto; overflow-wrap: break-word; list-style-type: decimal !important;&quot;&gt;UnsupportedOperationException-----当试图改变一个不允许修改的映射时&lt;/li&gt;&lt;/ol&gt;&lt;/div&gt;" style="rounded=1;whiteSpace=wrap;html=1;align=left;" vertex="1" parent="1">
          <mxGeometry x="1820" y="2960" width="480" height="200" as="geometry" />
        </mxCell>
        <mxCell id="yG7ckfpjS0qrGn7PJrxm-268" value="" style="shape=tableRow;horizontal=0;startSize=0;swimlaneHead=0;swimlaneBody=0;top=0;left=0;bottom=0;right=0;collapsible=0;dropTarget=0;fillColor=none;points=[[0,0.5],[1,0.5]];portConstraint=eastwest;strokeColor=inherit;fontSize=16;" vertex="1" parent="1">
          <mxGeometry x="1523.5" y="3380" width="830" height="40" as="geometry" />
        </mxCell>
        <mxCell id="yG7ckfpjS0qrGn7PJrxm-269" value="void clear()" style="shape=partialRectangle;html=1;whiteSpace=wrap;connectable=0;fillColor=none;top=0;left=0;bottom=0;right=0;overflow=hidden;pointerEvents=1;strokeColor=inherit;fontSize=16;" vertex="1" parent="yG7ckfpjS0qrGn7PJrxm-268">
          <mxGeometry width="275" height="40" as="geometry">
            <mxRectangle width="275" height="40" as="alternateBounds" />
          </mxGeometry>
        </mxCell>
        <mxCell id="yG7ckfpjS0qrGn7PJrxm-270" value="从此映射中移除所有映射关系" style="shape=partialRectangle;html=1;whiteSpace=wrap;connectable=0;fillColor=none;top=0;left=0;bottom=0;right=0;align=left;spacingLeft=6;overflow=hidden;strokeColor=inherit;fontSize=16;" vertex="1" parent="yG7ckfpjS0qrGn7PJrxm-268">
          <mxGeometry x="275" width="555" height="40" as="geometry">
            <mxRectangle width="555" height="40" as="alternateBounds" />
          </mxGeometry>
        </mxCell>
        <mxCell id="yG7ckfpjS0qrGn7PJrxm-271" value="" style="shape=tableRow;horizontal=0;startSize=0;swimlaneHead=0;swimlaneBody=0;top=0;left=0;bottom=0;right=0;collapsible=0;dropTarget=0;fillColor=none;points=[[0,0.5],[1,0.5]];portConstraint=eastwest;strokeColor=inherit;fontSize=16;" vertex="1" parent="1">
          <mxGeometry x="1523.5" y="3420" width="830" height="40" as="geometry" />
        </mxCell>
        <mxCell id="yG7ckfpjS0qrGn7PJrxm-272" value="boolean containsKey(Object key)" style="shape=partialRectangle;html=1;whiteSpace=wrap;connectable=0;fillColor=none;top=0;left=0;bottom=0;right=0;overflow=hidden;strokeColor=inherit;fontSize=16;" vertex="1" parent="yG7ckfpjS0qrGn7PJrxm-271">
          <mxGeometry width="275" height="40" as="geometry">
            <mxRectangle width="275" height="40" as="alternateBounds" />
          </mxGeometry>
        </mxCell>
        <mxCell id="yG7ckfpjS0qrGn7PJrxm-273" value="如果此映射包含指定键得映射关系，则返回true" style="shape=partialRectangle;html=1;whiteSpace=wrap;connectable=0;fillColor=none;top=0;left=0;bottom=0;right=0;align=left;spacingLeft=6;overflow=hidden;strokeColor=inherit;fontSize=16;" vertex="1" parent="yG7ckfpjS0qrGn7PJrxm-271">
          <mxGeometry x="275" width="555" height="40" as="geometry">
            <mxRectangle width="555" height="40" as="alternateBounds" />
          </mxGeometry>
        </mxCell>
        <mxCell id="yG7ckfpjS0qrGn7PJrxm-274" value="" style="shape=tableRow;horizontal=0;startSize=0;swimlaneHead=0;swimlaneBody=0;top=0;left=0;bottom=0;right=0;collapsible=0;dropTarget=0;fillColor=none;points=[[0,0.5],[1,0.5]];portConstraint=eastwest;strokeColor=inherit;fontSize=16;" vertex="1" parent="1">
          <mxGeometry x="1523.5" y="3460" width="830" height="30" as="geometry" />
        </mxCell>
        <mxCell id="yG7ckfpjS0qrGn7PJrxm-275" value="boolean containsValue(Object value)" style="shape=partialRectangle;html=1;whiteSpace=wrap;connectable=0;fillColor=none;top=0;left=0;bottom=0;right=0;overflow=hidden;strokeColor=inherit;fontSize=16;" vertex="1" parent="yG7ckfpjS0qrGn7PJrxm-274">
          <mxGeometry width="275" height="30" as="geometry">
            <mxRectangle width="275" height="30" as="alternateBounds" />
          </mxGeometry>
        </mxCell>
        <mxCell id="yG7ckfpjS0qrGn7PJrxm-276" value="如果此映射将一个或多个键映射到指定值，则返回true" style="shape=partialRectangle;html=1;whiteSpace=wrap;connectable=0;fillColor=none;top=0;left=0;bottom=0;right=0;align=left;spacingLeft=6;overflow=hidden;strokeColor=inherit;fontSize=16;" vertex="1" parent="yG7ckfpjS0qrGn7PJrxm-274">
          <mxGeometry x="275" width="555" height="30" as="geometry">
            <mxRectangle width="555" height="30" as="alternateBounds" />
          </mxGeometry>
        </mxCell>
        <mxCell id="yG7ckfpjS0qrGn7PJrxm-277" value="" style="shape=tableRow;horizontal=0;startSize=0;swimlaneHead=0;swimlaneBody=0;top=0;left=0;bottom=0;right=0;collapsible=0;dropTarget=0;fillColor=none;points=[[0,0.5],[1,0.5]];portConstraint=eastwest;strokeColor=inherit;fontSize=16;" vertex="1" parent="1">
          <mxGeometry x="1523.5" y="3490" width="830" height="30" as="geometry" />
        </mxCell>
        <mxCell id="yG7ckfpjS0qrGn7PJrxm-278" value="Set&amp;lt;Map.Entry&amp;lt;K,V&amp;gt;&amp;gt; entrySet()" style="shape=partialRectangle;html=1;whiteSpace=wrap;connectable=0;fillColor=none;top=0;left=0;bottom=0;right=0;overflow=hidden;strokeColor=inherit;fontSize=16;" vertex="1" parent="yG7ckfpjS0qrGn7PJrxm-277">
          <mxGeometry width="275" height="30" as="geometry">
            <mxRectangle width="275" height="30" as="alternateBounds" />
          </mxGeometry>
        </mxCell>
        <mxCell id="yG7ckfpjS0qrGn7PJrxm-279" value="返回此映射中包含得映射关系的Set视图" style="shape=partialRectangle;html=1;whiteSpace=wrap;connectable=0;fillColor=none;top=0;left=0;bottom=0;right=0;align=left;spacingLeft=6;overflow=hidden;strokeColor=inherit;fontSize=16;" vertex="1" parent="yG7ckfpjS0qrGn7PJrxm-277">
          <mxGeometry x="275" width="555" height="30" as="geometry">
            <mxRectangle width="555" height="30" as="alternateBounds" />
          </mxGeometry>
        </mxCell>
        <mxCell id="yG7ckfpjS0qrGn7PJrxm-280" value="" style="shape=tableRow;horizontal=0;startSize=0;swimlaneHead=0;swimlaneBody=0;top=0;left=0;bottom=0;right=0;collapsible=0;dropTarget=0;fillColor=none;points=[[0,0.5],[1,0.5]];portConstraint=eastwest;strokeColor=inherit;fontSize=16;" vertex="1" parent="1">
          <mxGeometry x="1523.5" y="3520" width="830" height="30" as="geometry" />
        </mxCell>
        <mxCell id="yG7ckfpjS0qrGn7PJrxm-281" value="boolean equals(Object o)" style="shape=partialRectangle;html=1;whiteSpace=wrap;connectable=0;fillColor=none;top=0;left=0;bottom=0;right=0;overflow=hidden;strokeColor=inherit;fontSize=16;" vertex="1" parent="yG7ckfpjS0qrGn7PJrxm-280">
          <mxGeometry width="275" height="30" as="geometry">
            <mxRectangle width="275" height="30" as="alternateBounds" />
          </mxGeometry>
        </mxCell>
        <mxCell id="yG7ckfpjS0qrGn7PJrxm-282" value="比较指定的对象与此映射是否相等" style="shape=partialRectangle;html=1;whiteSpace=wrap;connectable=0;fillColor=none;top=0;left=0;bottom=0;right=0;align=left;spacingLeft=6;overflow=hidden;strokeColor=inherit;fontSize=16;" vertex="1" parent="yG7ckfpjS0qrGn7PJrxm-280">
          <mxGeometry x="275" width="555" height="30" as="geometry">
            <mxRectangle width="555" height="30" as="alternateBounds" />
          </mxGeometry>
        </mxCell>
        <mxCell id="yG7ckfpjS0qrGn7PJrxm-283" value="" style="shape=tableRow;horizontal=0;startSize=0;swimlaneHead=0;swimlaneBody=0;top=0;left=0;bottom=0;right=0;collapsible=0;dropTarget=0;fillColor=none;points=[[0,0.5],[1,0.5]];portConstraint=eastwest;strokeColor=inherit;fontSize=16;" vertex="1" parent="1">
          <mxGeometry x="1523.5" y="3550" width="830" height="30" as="geometry" />
        </mxCell>
        <mxCell id="yG7ckfpjS0qrGn7PJrxm-284" value="V get(Object key)" style="shape=partialRectangle;html=1;whiteSpace=wrap;connectable=0;fillColor=none;top=0;left=0;bottom=0;right=0;overflow=hidden;strokeColor=inherit;fontSize=16;" vertex="1" parent="yG7ckfpjS0qrGn7PJrxm-283">
          <mxGeometry width="275" height="30" as="geometry">
            <mxRectangle width="275" height="30" as="alternateBounds" />
          </mxGeometry>
        </mxCell>
        <mxCell id="yG7ckfpjS0qrGn7PJrxm-285" value="返回指定键所映射的值；如果此映射不包含该键的映射关系，则返回null" style="shape=partialRectangle;html=1;whiteSpace=wrap;connectable=0;fillColor=none;top=0;left=0;bottom=0;right=0;align=left;spacingLeft=6;overflow=hidden;strokeColor=inherit;fontSize=16;" vertex="1" parent="yG7ckfpjS0qrGn7PJrxm-283">
          <mxGeometry x="275" width="555" height="30" as="geometry">
            <mxRectangle width="555" height="30" as="alternateBounds" />
          </mxGeometry>
        </mxCell>
        <mxCell id="yG7ckfpjS0qrGn7PJrxm-286" value="" style="shape=tableRow;horizontal=0;startSize=0;swimlaneHead=0;swimlaneBody=0;top=0;left=0;bottom=0;right=0;collapsible=0;dropTarget=0;fillColor=none;points=[[0,0.5],[1,0.5]];portConstraint=eastwest;strokeColor=inherit;fontSize=16;" vertex="1" parent="1">
          <mxGeometry x="1523.5" y="3580" width="830" height="30" as="geometry" />
        </mxCell>
        <mxCell id="yG7ckfpjS0qrGn7PJrxm-287" value="int hashCode()" style="shape=partialRectangle;html=1;whiteSpace=wrap;connectable=0;fillColor=none;top=0;left=0;bottom=0;right=0;overflow=hidden;strokeColor=inherit;fontSize=16;" vertex="1" parent="yG7ckfpjS0qrGn7PJrxm-286">
          <mxGeometry width="275" height="30" as="geometry">
            <mxRectangle width="275" height="30" as="alternateBounds" />
          </mxGeometry>
        </mxCell>
        <mxCell id="yG7ckfpjS0qrGn7PJrxm-288" value="返回此映射的哈希码值" style="shape=partialRectangle;html=1;whiteSpace=wrap;connectable=0;fillColor=none;top=0;left=0;bottom=0;right=0;align=left;spacingLeft=6;overflow=hidden;strokeColor=inherit;fontSize=16;" vertex="1" parent="yG7ckfpjS0qrGn7PJrxm-286">
          <mxGeometry x="275" width="555" height="30" as="geometry">
            <mxRectangle width="555" height="30" as="alternateBounds" />
          </mxGeometry>
        </mxCell>
        <mxCell id="yG7ckfpjS0qrGn7PJrxm-289" value="" style="shape=tableRow;horizontal=0;startSize=0;swimlaneHead=0;swimlaneBody=0;top=0;left=0;bottom=0;right=0;collapsible=0;dropTarget=0;fillColor=none;points=[[0,0.5],[1,0.5]];portConstraint=eastwest;strokeColor=inherit;fontSize=16;" vertex="1" parent="1">
          <mxGeometry x="1523.5" y="3610" width="830" height="30" as="geometry" />
        </mxCell>
        <mxCell id="yG7ckfpjS0qrGn7PJrxm-290" value="boolean isEmpty()" style="shape=partialRectangle;html=1;whiteSpace=wrap;connectable=0;fillColor=none;top=0;left=0;bottom=0;right=0;overflow=hidden;strokeColor=inherit;fontSize=16;" vertex="1" parent="yG7ckfpjS0qrGn7PJrxm-289">
          <mxGeometry width="275" height="30" as="geometry">
            <mxRectangle width="275" height="30" as="alternateBounds" />
          </mxGeometry>
        </mxCell>
        <mxCell id="yG7ckfpjS0qrGn7PJrxm-291" value="如果此映射未包含键值映射关系，则返回true" style="shape=partialRectangle;html=1;whiteSpace=wrap;connectable=0;fillColor=none;top=0;left=0;bottom=0;right=0;align=left;spacingLeft=6;overflow=hidden;strokeColor=inherit;fontSize=16;" vertex="1" parent="yG7ckfpjS0qrGn7PJrxm-289">
          <mxGeometry x="275" width="555" height="30" as="geometry">
            <mxRectangle width="555" height="30" as="alternateBounds" />
          </mxGeometry>
        </mxCell>
        <mxCell id="yG7ckfpjS0qrGn7PJrxm-292" value="" style="shape=tableRow;horizontal=0;startSize=0;swimlaneHead=0;swimlaneBody=0;top=0;left=0;bottom=0;right=0;collapsible=0;dropTarget=0;fillColor=none;points=[[0,0.5],[1,0.5]];portConstraint=eastwest;strokeColor=inherit;fontSize=16;" vertex="1" parent="1">
          <mxGeometry x="1523.5" y="3640" width="830" height="30" as="geometry" />
        </mxCell>
        <mxCell id="yG7ckfpjS0qrGn7PJrxm-293" value="Set&amp;lt;K&amp;gt; keySet" style="shape=partialRectangle;html=1;whiteSpace=wrap;connectable=0;fillColor=none;top=0;left=0;bottom=0;right=0;overflow=hidden;strokeColor=inherit;fontSize=16;" vertex="1" parent="yG7ckfpjS0qrGn7PJrxm-292">
          <mxGeometry width="275" height="30" as="geometry">
            <mxRectangle width="275" height="30" as="alternateBounds" />
          </mxGeometry>
        </mxCell>
        <mxCell id="yG7ckfpjS0qrGn7PJrxm-294" value="返回此映射中包含的键的set视图" style="shape=partialRectangle;html=1;whiteSpace=wrap;connectable=0;fillColor=none;top=0;left=0;bottom=0;right=0;align=left;spacingLeft=6;overflow=hidden;strokeColor=inherit;fontSize=16;" vertex="1" parent="yG7ckfpjS0qrGn7PJrxm-292">
          <mxGeometry x="275" width="555" height="30" as="geometry">
            <mxRectangle width="555" height="30" as="alternateBounds" />
          </mxGeometry>
        </mxCell>
        <mxCell id="yG7ckfpjS0qrGn7PJrxm-295" value="" style="shape=tableRow;horizontal=0;startSize=0;swimlaneHead=0;swimlaneBody=0;top=0;left=0;bottom=0;right=0;collapsible=0;dropTarget=0;fillColor=none;points=[[0,0.5],[1,0.5]];portConstraint=eastwest;strokeColor=inherit;fontSize=16;" vertex="1" parent="1">
          <mxGeometry x="1523.5" y="3670" width="830" height="30" as="geometry" />
        </mxCell>
        <mxCell id="yG7ckfpjS0qrGn7PJrxm-296" value="V put(K key,V value)" style="shape=partialRectangle;html=1;whiteSpace=wrap;connectable=0;fillColor=none;top=0;left=0;bottom=0;right=0;overflow=hidden;strokeColor=inherit;fontSize=16;" vertex="1" parent="yG7ckfpjS0qrGn7PJrxm-295">
          <mxGeometry width="275" height="30" as="geometry">
            <mxRectangle width="275" height="30" as="alternateBounds" />
          </mxGeometry>
        </mxCell>
        <mxCell id="yG7ckfpjS0qrGn7PJrxm-297" value="指定的值与此映射中的指定键关联" style="shape=partialRectangle;html=1;whiteSpace=wrap;connectable=0;fillColor=none;top=0;left=0;bottom=0;right=0;align=left;spacingLeft=6;overflow=hidden;strokeColor=inherit;fontSize=16;" vertex="1" parent="yG7ckfpjS0qrGn7PJrxm-295">
          <mxGeometry x="275" width="555" height="30" as="geometry">
            <mxRectangle width="555" height="30" as="alternateBounds" />
          </mxGeometry>
        </mxCell>
        <mxCell id="yG7ckfpjS0qrGn7PJrxm-298" value="" style="shape=tableRow;horizontal=0;startSize=0;swimlaneHead=0;swimlaneBody=0;top=0;left=0;bottom=0;right=0;collapsible=0;dropTarget=0;fillColor=none;points=[[0,0.5],[1,0.5]];portConstraint=eastwest;strokeColor=inherit;fontSize=16;" vertex="1" parent="1">
          <mxGeometry x="1523.5" y="3700" width="830" height="70" as="geometry" />
        </mxCell>
        <mxCell id="yG7ckfpjS0qrGn7PJrxm-299" value="void putAll(Map&amp;lt;? extends K,? extends V&amp;gt; m)" style="shape=partialRectangle;html=1;whiteSpace=wrap;connectable=0;fillColor=none;top=0;left=0;bottom=0;right=0;overflow=hidden;strokeColor=inherit;fontSize=16;" vertex="1" parent="yG7ckfpjS0qrGn7PJrxm-298">
          <mxGeometry width="275" height="70" as="geometry">
            <mxRectangle width="275" height="70" as="alternateBounds" />
          </mxGeometry>
        </mxCell>
        <mxCell id="yG7ckfpjS0qrGn7PJrxm-300" value="从指定映射中将所有映射关系复制到此映射中" style="shape=partialRectangle;html=1;whiteSpace=wrap;connectable=0;fillColor=none;top=0;left=0;bottom=0;right=0;align=left;spacingLeft=6;overflow=hidden;strokeColor=inherit;fontSize=16;" vertex="1" parent="yG7ckfpjS0qrGn7PJrxm-298">
          <mxGeometry x="275" width="555" height="70" as="geometry">
            <mxRectangle width="555" height="70" as="alternateBounds" />
          </mxGeometry>
        </mxCell>
        <mxCell id="yG7ckfpjS0qrGn7PJrxm-301" value="" style="shape=tableRow;horizontal=0;startSize=0;swimlaneHead=0;swimlaneBody=0;top=0;left=0;bottom=0;right=0;collapsible=0;dropTarget=0;fillColor=none;points=[[0,0.5],[1,0.5]];portConstraint=eastwest;strokeColor=inherit;fontSize=16;" vertex="1" parent="1">
          <mxGeometry x="1523.5" y="3770" width="830" height="50" as="geometry" />
        </mxCell>
        <mxCell id="yG7ckfpjS0qrGn7PJrxm-302" value="V remove(Object key)" style="shape=partialRectangle;html=1;whiteSpace=wrap;connectable=0;fillColor=none;top=0;left=0;bottom=0;right=0;overflow=hidden;strokeColor=inherit;fontSize=16;" vertex="1" parent="yG7ckfpjS0qrGn7PJrxm-301">
          <mxGeometry width="275" height="50" as="geometry">
            <mxRectangle width="275" height="50" as="alternateBounds" />
          </mxGeometry>
        </mxCell>
        <mxCell id="yG7ckfpjS0qrGn7PJrxm-303" value="如果存在一个键的映射关系，则将其从此映射中移除" style="shape=partialRectangle;html=1;whiteSpace=wrap;connectable=0;fillColor=none;top=0;left=0;bottom=0;right=0;align=left;spacingLeft=6;overflow=hidden;strokeColor=inherit;fontSize=16;" vertex="1" parent="yG7ckfpjS0qrGn7PJrxm-301">
          <mxGeometry x="275" width="555" height="50" as="geometry">
            <mxRectangle width="555" height="50" as="alternateBounds" />
          </mxGeometry>
        </mxCell>
        <mxCell id="yG7ckfpjS0qrGn7PJrxm-304" value="&lt;ul&gt;&lt;li&gt;HashTable出现在JDK1.0，线程安全，因为不能存入null类型&lt;/li&gt;&lt;li&gt;HashMap出现在JDK1.5，线程不安全，因为能存入null&lt;/li&gt;&lt;/ul&gt;" style="rounded=1;whiteSpace=wrap;html=1;align=left;" vertex="1" parent="1">
          <mxGeometry x="2370" y="3390" width="375" height="180" as="geometry" />
        </mxCell>
        <mxCell id="yG7ckfpjS0qrGn7PJrxm-305" value="TreeMap与TreeSet类似，都需要重写比较器（外部比较器+内部比较器）&lt;div&gt;TreeMap集合特点：单一，有序&lt;/div&gt;" style="rounded=1;whiteSpace=wrap;html=1;" vertex="1" parent="1">
          <mxGeometry x="2180" y="2600" width="261" height="190" as="geometry" />
        </mxCell>
      </root>
    </mxGraphModel>
  </diagram>
</mxfile>
